<svg width="213" height="194" viewBox="0 0 213 194" fill="none" xmlns="http://www.w3.org/2000/svg">
<path fill-rule="evenodd" clip-rule="evenodd" d="M193.839 141.625C193.499 140.374 192.788 138.615 191.838 135.199C188.447 122.886 195.059 127.419 200.688 120.383C212.081 105.872 195.975 87.5731 203.876 71.7766C205.469 68.8001 216.862 59.6334 211.641 56.2172C198.755 47.761 194.686 87.5731 195.331 93.5939C196.077 100.866 198.721 109.999 194.517 116.324C195.805 108.139 191.804 101.949 192.618 94.1688C193.669 84.0214 205.028 40.7591 191.838 36.0914C192.659 34.8575 192.975 33.356 192.72 31.897C187.967 31.4129 183.174 32.2684 178.885 34.3663C177.461 34.9412 174.816 35.55 173.493 36.2604C172.171 36.9709 172.51 37.6135 171.527 38.2901C169.495 39.6986 167.639 41.3451 166 43.1946C165.322 44.2431 165.457 45.3255 166.746 45.3255C167.288 46.8476 168.577 47.8287 169.153 49.5876C166.475 50.5007 167.153 48.4714 166.305 47.3551C165.457 46.7463 163.185 52.0905 166.848 52.0905C167.91 52.0231 168.965 51.8648 170.001 51.6169L170.238 51.9889C168.339 53.7479 168.407 54.6951 169.289 55.2025C171.298 56.0109 173.484 56.2791 175.63 55.9804C179.834 57.5703 168.848 67.3457 163.83 52.1922C161.931 46.0359 164.033 31.4573 154.674 31.5589C155.013 30.1043 154.674 27.9733 150.606 26.6541C147.214 25.2673 143.213 23.8805 141.45 23.2716C142.149 21.609 143.037 20.0316 144.095 18.5699L137.958 15.6948C137.958 16.0331 136.805 19.7538 136.669 21.0053L130.939 19.145L133.956 10.3166L142.84 7.71212H143.078L148.334 2.26628L149.724 0.845624L147.723 0.642676L140.128 0H139.958H139.755L123.648 5.31052V4.87082L114.222 2.63835L112.255 4.29578L111.746 9.33571L111.204 9.50483L111.543 2.13098C107.847 2.13098 104.219 2.13098 100.557 2.13098L100.862 9.47102H100.421L99.9124 4.43108L97.8099 2.63835C94.6019 3.13039 91.4384 3.87692 88.3496 4.87082V5.20905L72.5821 0H72.4126H72.2092L64.6137 0.642676L62.5791 0.845624L64.0034 2.26628L69.0555 7.50915H69.259H69.4963L78.1769 10.3166V10.4858L81.2626 19.3141L75.5323 21.2083C74.7182 14.4433 75.8033 15.4919 69.1234 18.5699L68.6147 18.9082C67.462 20.1259 69.8696 22.2907 70.4459 23.6437C66.7381 24.9378 63.1335 26.5095 59.6631 28.3454C57.4251 29.394 56.2721 31.1527 57.2893 33.5207C56.8778 33.4903 56.4641 33.5435 56.0736 33.6772C55.6831 33.8108 55.3238 34.0224 55.0176 34.2986C51.864 36.6324 49.2194 74.8886 36.6391 61.3585C33.2484 57.7055 37.4531 57.7393 40.8438 57.7393C49.0159 57.7393 44.8791 52.6316 39.4198 54.9657C36.8425 56.0481 35.1472 53.5788 38.6397 53.5788C39.5214 53.5788 56.5095 52.3612 47.5916 49.0802C48.2019 50.0274 48.1003 50.6362 47.5916 51.042C45.0835 51.7694 42.4521 51.9766 39.8606 51.6508C37.5547 51.6508 35.6559 51.6508 35.6559 52.1244C35.6559 45.3594 48.9141 57.5703 47.863 44.3447C42.3697 45.1903 36.673 42.1122 30.9088 41.8076C31.587 39.3047 32.6381 36.6663 28.7725 35.9559C21.1431 34.5354 26.4328 39.3386 26.5006 41.8754L24.9408 42.146C21.7534 29.6984 5.71473 40.5562 19.1425 45.5284C16.2942 48.3697 10.8349 63.0836 13.8527 61.8321C15.3786 61.1556 10.6993 70.9988 13.5137 68.5972C18.2609 64.6057 7.68143 80.5374 13.1068 75.3622C14.5648 74.043 18.193 95.2512 18.0574 97.5176C17.7522 102.524 20.5327 113.957 17.82 118.083C17.108 119.166 22.9063 130.835 18.9051 129.618C17.2775 129.11 15.5143 138.547 16.1246 139.765C14.9589 138.926 13.6282 138.343 12.2202 138.054C10.8122 137.766 9.35882 137.778 7.95592 138.09C6.55302 138.403 5.23242 139.008 4.08117 139.867C2.92994 140.726 1.97418 141.818 1.27692 143.072C0.579653 144.326 0.156708 145.713 0.0359568 147.142C-0.0847944 148.57 0.099391 150.009 0.576375 151.361C1.05336 152.714 1.81231 153.95 2.8032 154.989C3.79409 156.028 4.99442 156.846 6.32508 157.388C5.72822 158.795 5.64209 160.365 6.08155 161.829C6.52104 163.292 7.45861 164.557 8.7326 165.404C4.12106 176.33 21.6517 186.038 26.2971 174.808L29.1455 181.978C35.9272 199.297 52.8814 192.938 42.3358 178.325C49.9991 177.412 55.6958 183.23 59.4934 189.149L68.0044 186.477C68.7644 187.582 69.7597 188.506 70.9191 189.182C72.0786 189.859 73.3736 190.272 74.7111 190.391C76.049 190.511 77.3968 190.334 78.6584 189.874C79.9198 189.414 81.0638 188.681 82.0087 187.729C84.3066 188.455 86.7885 188.344 89.0118 187.414C91.235 186.485 93.0551 184.799 94.1479 182.655C96.7807 183.061 99.4729 182.523 101.745 181.136C104.017 179.748 105.723 177.602 106.558 175.078C107.373 177.51 108.999 179.588 111.165 180.968C113.332 182.346 115.907 182.942 118.46 182.655C119.557 184.828 121.4 186.536 123.652 187.467C125.906 188.399 128.419 188.491 130.735 187.729C131.69 188.693 132.848 189.432 134.125 189.893C135.403 190.353 136.768 190.523 138.119 190.39C139.471 190.257 140.776 189.825 141.939 189.124C143.102 188.424 144.094 187.474 144.841 186.342L153.589 189.149C157.319 183.298 163.05 177.48 170.544 178.292C167.424 182.689 163.524 192.803 172.883 192.836C181.055 192.836 184.209 181.234 186.616 175.146C191.669 186.105 208.962 175.856 204.079 164.999C205.101 164.043 205.819 162.809 206.144 161.45C206.47 160.092 206.388 158.667 205.91 157.354C221.101 149.405 205.774 130.226 193.839 141.625ZM208.453 63.1852C208.291 63.3933 208.109 63.5858 207.911 63.7601C207.165 63.0836 205.164 62.2041 204.52 61.6969C207.436 57.8071 211.878 59.0247 208.453 63.1852ZM202.248 65.2484C203.229 65.632 204.101 66.2473 204.791 67.0412C203.986 67.956 203.282 68.9541 202.689 70.0177L200.247 69.7473C200.792 68.1965 201.461 66.692 202.248 65.2484ZM200.993 103.775V103.572C201.152 104.858 201.287 106.109 201.4 107.327C200.758 107.696 200.075 107.991 199.366 108.206C199.366 106.786 199.366 105.365 199.366 103.978C199.904 103.878 200.447 103.81 200.993 103.775ZM198.721 99.2088C198.484 97.7544 198.213 96.2659 198.043 94.8115C198.676 94.5956 199.341 94.4928 200.01 94.5073L200.62 98.7014L198.721 99.2088ZM199.264 73.3665L201.095 73.5694C200.549 75.1393 200.163 76.7596 199.942 78.4065V79.083L198.62 78.7446C198.721 76.9518 198.925 75.1254 199.264 73.3665ZM197.975 83.9875C198.341 83.84 198.734 83.7707 199.128 83.7846C198.807 85.8468 198.807 87.946 199.128 90.0083L197.738 90.3467C197.513 88.2266 197.593 86.0852 197.975 83.9875ZM198.857 112.908C199.741 112.858 200.617 112.711 201.468 112.468C201.181 114.117 200.619 115.706 199.806 117.17C199.04 117.046 198.281 116.877 197.535 116.663C198.146 115.477 198.59 114.214 198.857 112.908ZM192.618 147.477C204.859 145.177 198.755 156.982 186.582 156.88C188.914 153.962 190.936 150.811 192.618 147.477ZM170.238 48.1329H171.527C171.527 48.1329 171.222 49.5538 171.052 50.5007C170.704 49.7398 170.432 48.9468 170.238 48.1329ZM179.902 56.3863C182.038 54.4583 186.311 53.0039 185.022 51.5156C183.124 52.4748 181.151 53.2779 179.123 53.9172C176.925 54.5691 174.614 54.7533 172.341 54.4583C170.849 54.2553 170.95 53.2746 172.544 53.1391C175.664 52.8684 183.09 54.6273 180.919 48.0991C178.749 41.5708 169.526 49.4521 169.289 44.1079C170.849 43.0255 170.747 41.8754 173.256 40.7252C174.145 41.092 175.081 41.3312 176.037 41.4356C176.416 41.7257 176.881 41.8803 177.359 41.8754C177.658 41.8843 177.955 41.8282 178.23 41.7115C178.505 41.5948 178.752 41.4199 178.953 41.1988C180.282 40.8379 181.585 40.3859 182.852 39.8458C182.97 39.8014 183.078 39.7343 183.17 39.6481C183.262 39.5621 183.337 39.4587 183.388 39.3441C183.44 39.2296 183.469 39.1058 183.473 38.9801C183.477 38.8542 183.456 38.7289 183.412 38.6112C183.367 38.4936 183.3 38.3858 183.214 38.2941C183.127 38.2023 183.024 38.1284 182.909 38.0767C182.794 38.0246 182.67 37.996 182.544 37.992C182.418 37.988 182.292 38.0086 182.174 38.0533C181.005 38.4788 179.803 38.8068 178.58 39.034C178.212 38.8114 177.79 38.6944 177.359 38.6959C177.074 38.6944 176.792 38.7504 176.53 38.861C176.268 38.9715 176.031 39.1338 175.833 39.3386C175.476 39.3438 175.123 39.2502 174.816 39.0679C175.053 36.7341 181.055 36.1588 182.852 35.922V36.937C183.429 36.937 188.515 31.8631 190.549 33.5543C192.584 35.2458 184.751 36.937 190.007 37.6474C189.116 38.214 188.286 38.8717 187.532 39.6093C187.434 39.7186 187.382 39.8615 187.386 40.008C187.391 40.1546 187.451 40.2941 187.555 40.3976C187.659 40.5013 187.799 40.5614 187.946 40.5657C188.093 40.5703 188.236 40.5183 188.345 40.421C188.345 40.421 188.888 39.9135 189.566 39.3725C190.244 38.8311 191.635 37.9855 192.516 38.7298C190.827 39.6675 189.256 40.8031 187.837 42.1122C187.72 42.2107 187.647 42.3517 187.634 42.5042C187.622 42.6563 187.67 42.8075 187.769 42.9239C187.868 43.0406 188.009 43.1133 188.162 43.1259C188.315 43.1385 188.466 43.0902 188.583 42.9916C189.773 42.1294 191.007 41.3279 192.279 40.59L193.33 39.9812L193.94 41.1988H193.703C191.852 41.9591 190.135 43.0098 188.617 44.3108C188.564 44.3613 188.523 44.4217 188.495 44.4885C188.466 44.5553 188.451 44.6271 188.451 44.6998C188.451 44.7724 188.466 44.8442 188.495 44.911C188.523 44.9778 188.564 45.0382 188.617 45.0887C188.694 45.2174 188.82 45.311 188.965 45.3489C189.111 45.3868 189.266 45.3661 189.397 45.2916C191.058 44.3844 192.78 43.5933 194.551 42.9239C194.788 45.833 191.465 46.1036 190.143 47.0167C189.363 47.4903 189.634 48.5388 190.448 48.2346C192.075 47.6258 193.567 46.7463 195.161 46.0698C195.5 48.9785 187.294 51.2449 187.837 52.8348C188.379 54.4244 194.11 49.4521 195.059 50.4668C195.737 52.9023 183.293 59.2615 184.683 61.8321L193.873 56.8599C194.856 58.6865 185.599 64.9441 183.7 65.7897C172.035 71.6076 202.621 59.0246 191.397 66.0939C189.498 67.278 176.986 76.0388 177.122 76.9182C177.257 77.7977 192.618 69.4428 193.669 69.4428C193.499 74.5841 178.444 77.3915 178.308 81.4507C180.818 82.8035 189.871 74.0769 192.889 76.0049C193.873 77.4593 188.82 81.0449 184.649 83.7168C181.835 85.239 179.427 86.423 179.427 86.423C179.348 86.4476 179.274 86.4892 179.212 86.5449C179.15 86.601 179.1 86.6697 179.067 86.7463C179.035 86.823 179.019 86.9061 179.021 86.9896C179.024 87.0731 179.044 87.155 179.082 87.2295C179.119 87.3043 179.173 87.3699 179.238 87.4219C179.303 87.474 179.379 87.5112 179.461 87.5309C179.542 87.551 179.627 87.5528 179.709 87.5365C179.791 87.5205 179.868 87.4866 179.936 87.4376L182.615 86.0846C186.243 84.5289 190.753 81.7211 191.296 83.2097C193.533 87.0657 185.362 87.8096 184.853 89.6363L185.734 90.6848C184.31 91.9027 178.275 92.6806 178.953 95.8261C180.479 97.044 189.125 91.5643 190.075 91.6995C195.568 97.2808 175.223 97.247 173.799 101.137C177.189 103.775 187.973 97.1792 190.753 98.6C193.025 102.321 186.107 102.354 182.751 102.456C180.614 102.456 180.208 103.741 181.937 104.316L175.359 106.008C175.359 106.65 182.717 105.703 184.378 106.177C188.481 107.293 189.905 102.49 191.635 103.707C193.974 107.09 176.24 108.95 175.765 112.333C176.308 112.705 179.326 111.217 180.174 110.98C181.021 110.743 196.28 107.597 192.075 111.724C189.329 114.464 178.139 115.107 173.901 116.764C172.544 120.891 190.007 114.227 190.617 117.102C191.092 119.267 183.836 119.605 182.378 119.876C177.257 120.891 167.22 125.389 178.987 123.258C180.919 122.92 181.801 123.664 183.259 123.529C189.77 123.022 186.006 126.539 182.445 125.525C178.003 124.273 170.544 133.913 178.512 128.264C180.072 127.182 189.736 126.032 185.836 129.922C184.039 131.715 177.088 129.922 176.918 134.082C178.58 134.082 183.463 131.579 184.887 133.203C182.072 136.586 186.074 134.624 187.837 133.778C190.414 139.088 180.513 136.653 179.97 140.543C182.344 140.949 189.058 137.16 190.617 138.277C190.617 141.49 182.581 140.712 183.429 143.689C184.243 143.926 190.211 140.306 191.058 142.775C191.906 145.245 184.276 144.331 186.04 147.68L190.143 145.651C191.296 147.951 189.702 149.033 187.464 149.033C185.226 149.033 182.208 151.637 184.073 151.637C184.785 151.637 186.921 151.198 187.023 152.145C186.515 153.396 180.038 154.817 181.123 156.103L184.514 155.832C185.09 162.597 171.968 164.525 166.881 164.22C166.678 162.901 168.679 158.842 167.526 158.2C165.457 157.049 164.915 163.341 164.949 164.017L162.948 163.916C162.541 162.36 164.711 158.098 163.457 157.456C161.422 156.441 160.846 162.495 160.913 163.206C158.777 162.191 159.049 160.263 159.727 158.166C162.1 151.401 173.968 159.045 177.257 150.589C183.429 136.01 153.521 140.644 161.219 122.582C164.609 116.798 175.257 109.052 171.629 101.002C170.743 99.1269 170.192 97.1121 170.001 95.0483C174.477 99.4456 174.986 96.8072 174.206 92.9512C182.004 95.3864 175.46 85.0022 176.41 92.1392C173.934 91.3614 170.306 90.6848 173.019 95.0483C168.001 92.4776 167.56 92.2408 168.916 98.1942C163.49 95.488 162.982 94.5408 163.355 100.697C159.252 97.5851 157.76 94.8454 156.573 100.697C152.165 95.3528 152.368 86.1184 146.604 81.7889C144.4 80.1654 141.959 80.8755 141.111 78.8123C139.314 80.6052 137.279 81.1123 136.126 78.3726C145.146 75.5313 135.584 77.4254 135.381 75.3961C136.432 74.7534 141.314 74.4489 141.179 72.9945C141.179 70.9988 136.126 72.9945 135.482 73.2313C137.822 66.9399 147.045 74.0092 148.876 75.7342C146.638 77.7638 150.334 77.2902 152.606 78.5078C147.113 81.011 156.336 79.6579 156.438 79.9625C155.251 80.4697 151.962 81.3153 153.047 83.5478C155.013 84.867 158.709 79.1843 160.642 79.9286C161.083 81.0784 152.504 85.036 155.081 87.6067C157.557 88.6217 161.863 81.1801 164.982 80.6051C164.067 82.6345 160.676 88.5539 163.185 90.2112C164.779 90.5497 167.186 78.6433 169.086 76.6814C169.086 76.6814 168.475 80.2667 168.475 80.9094C168.475 89.8054 171.866 74.5841 172.069 74.1443C173.256 70.9988 183.022 65.5529 181.123 62.0689C180.208 62.3057 179.224 65.722 177.054 66.7031C171.493 69.1382 167.56 73.7046 162.507 76.8505C163.674 71.9872 166.689 67.7667 170.916 65.0793C174.24 62.9484 179.902 60.8849 179.902 56.3863ZM177.732 51.3127C176.138 51.3127 174.341 50.9065 172.816 51.042V50.6023C174.68 50.1625 176.512 49.486 177.563 51.3127H177.732ZM173.121 48.9785C173.25 48.5028 173.42 48.0387 173.629 47.5919C175.528 47.1522 178.546 47.0167 179.055 48.6743C177.477 48.4895 175.884 48.4895 174.307 48.6743C173.927 48.8286 173.528 48.9311 173.121 48.9785ZM154.607 157.76C154.013 158.928 153.612 160.185 153.42 161.481C150.47 160.635 152.911 154.716 159.794 154.716C158.288 156.414 157.456 158.604 157.455 160.872L155.387 161.312C155.454 160.939 156.336 154.31 154.607 157.76ZM148.537 131.918C146.524 134.067 144.348 136.057 142.027 137.871C132.159 129.854 119.41 126.438 111.509 138.615L108.695 135.537C108.322 135.232 108.014 134.857 107.787 134.434C107.56 134.01 107.419 133.546 107.372 133.068C107.465 132.121 107.843 131.225 108.457 130.497C109.188 129.607 110.09 128.871 111.108 128.331C112.127 127.791 113.243 127.458 114.391 127.351C115.171 127.351 115.951 127.114 116.799 127.047C120.887 126.813 124.985 126.813 129.074 127.047H130.871C132.903 127.165 134.941 127.165 136.974 127.047C141.319 127.425 145.655 126.224 149.181 123.664C155.217 117.711 152.776 103.978 152.776 95.8939C153.793 99.5134 159.862 108.105 158.777 98.7691L161.219 100.629C163.846 102.784 165.984 105.47 167.492 108.511C162.945 111.854 159.03 115.978 155.929 120.688C154.112 123.444 153.309 126.743 153.655 130.024C154.001 133.304 155.476 136.364 157.828 138.683C160.947 142.336 170.035 147.951 162.541 152.213C160.292 151.156 158.157 149.876 156.166 148.39C157.176 147.324 158.116 146.194 158.981 145.008L148.537 131.918ZM98.0133 146.259C99.221 146.713 100.362 147.328 101.404 148.086C98.8616 147.383 96.1862 147.301 93.6055 147.849C92.9322 147.09 92.3093 146.288 91.7403 145.448C93.8601 145.275 95.9932 145.528 98.0133 146.192V146.259ZM95.5722 138.987C97.5941 139.836 99.4269 141.078 100.964 142.64C102.202 143.931 103.201 145.432 103.913 147.071C99.5053 143.35 96.1485 145.211 95.5722 138.919V138.987ZM93.0288 137.33C93.0643 139.165 93.3033 140.992 93.741 142.775C91.6471 142.197 89.4436 142.139 87.322 142.604C85.2003 143.07 83.225 144.046 81.5679 145.448C80.381 144.771 79.2283 144.095 78.1769 143.351C81.0252 140.949 87.1627 136.788 93.0288 137.262V137.33ZM76.0746 141.862C74.9556 141.084 73.9045 140.205 72.6839 139.325C79.0585 134.353 87.9428 129.854 95.2669 135.334C87.6375 133.169 79.1604 139.325 76.1426 141.795L76.0746 141.862ZM96.5893 149.845C99.229 149.855 101.83 150.481 104.185 151.671C102.24 153.213 99.8115 154.018 97.3286 153.944C94.8458 153.87 92.4698 152.921 90.6213 151.265C92.5186 150.386 94.568 149.881 96.6572 149.777L96.5893 149.845ZM103.201 141.592C102.998 141.118 102.761 140.611 102.523 140.171L106.423 136.213L110.254 140.34C109.068 142.674 107.474 144.771 106.49 147.274C105.77 145.181 104.679 143.233 103.269 141.524L103.201 141.592ZM125.649 30.0028H86.5864C99.4176 26.8688 112.817 26.8688 125.649 30.0028ZM85.7047 27.06C85.6726 26.8527 85.6862 26.641 85.7439 26.4394C85.8016 26.2378 85.9023 26.051 86.039 25.8918C86.1761 25.7327 86.3459 25.6049 86.537 25.5173C86.7277 25.4297 86.9355 25.3844 87.1457 25.3844C87.3559 25.3844 87.5637 25.4297 87.7548 25.5173C87.9458 25.6049 88.1156 25.7327 88.2524 25.8918C88.3894 26.051 88.4901 26.2378 88.5478 26.4394C88.6055 26.641 88.6188 26.8527 88.587 27.06C88.5339 27.4034 88.3595 27.7165 88.0953 27.9427C87.8307 28.169 87.4939 28.2933 87.1457 28.2933C86.7975 28.2933 86.4607 28.169 86.1965 27.9427C85.9319 27.7165 85.7575 27.4034 85.7047 27.06ZM100.251 25.0305C100.251 24.7429 100.337 24.4616 100.497 24.2224C100.657 23.9833 100.885 23.7968 101.152 23.6868C101.418 23.5767 101.711 23.5479 101.994 23.604C102.277 23.6601 102.537 23.7986 102.74 24.002C102.944 24.2055 103.083 24.4646 103.14 24.7468C103.196 25.0289 103.167 25.3213 103.056 25.5871C102.946 25.8529 102.759 26.08 102.519 26.2399C102.28 26.3997 101.998 26.485 101.709 26.485C101.514 26.4899 101.319 26.4545 101.138 26.3809C100.956 26.3074 100.792 26.1974 100.655 26.0577C100.518 25.9181 100.412 25.7518 100.342 25.5692C100.273 25.3867 100.242 25.1918 100.251 24.9967V25.0305ZM107.304 21.3098C109.033 21.7736 110.545 22.8267 111.577 24.2864C110.816 24.8052 109.96 25.1681 109.058 25.3539C108.156 25.5398 107.225 25.5448 106.321 25.3688C105.651 25.166 105.039 24.8095 104.532 24.3278C104.026 23.8461 103.64 23.2527 103.405 22.5951C103.849 22.013 104.459 21.5785 105.155 21.3491C105.851 21.1196 106.6 21.1059 107.304 21.3098ZM104.422 17.9273C104.475 17.5839 104.649 17.2707 104.914 17.0445C105.178 16.8183 105.515 16.6939 105.863 16.6939C106.211 16.6939 106.548 16.8183 106.813 17.0445C107.077 17.2707 107.251 17.5839 107.304 17.9273C107.336 18.1345 107.323 18.3462 107.265 18.5479C107.208 18.7495 107.107 18.9363 106.97 19.0955C106.833 19.2546 106.663 19.3824 106.472 19.47C106.281 19.5575 106.073 19.6029 105.863 19.6029C105.653 19.6029 105.445 19.5575 105.254 19.47C105.063 19.3824 104.894 19.2546 104.756 19.0955C104.62 18.9363 104.519 18.7495 104.461 18.5479C104.404 18.3462 104.39 18.1345 104.422 17.9273ZM112.255 24.8952C112.255 24.6075 112.341 24.3263 112.501 24.0872C112.661 23.848 112.889 23.6615 113.155 23.5514C113.422 23.4414 113.715 23.4126 113.998 23.4687C114.28 23.5248 114.54 23.6633 114.744 23.8667C114.948 24.0702 115.087 24.3293 115.143 24.6115C115.199 24.8936 115.17 25.1861 115.06 25.4518C114.95 25.7176 114.763 25.9448 114.523 26.1046C114.283 26.2644 114.001 26.3497 113.713 26.3497C113.341 26.3589 112.98 26.2225 112.708 25.9697C112.435 25.7168 112.273 25.3676 112.255 24.9967V24.8952ZM120.122 22.7304C121.754 23.3795 123.109 24.5755 123.953 26.1129C123.14 26.5364 122.248 26.7907 121.333 26.8605C120.418 26.9302 119.499 26.814 118.63 26.5188C118.029 26.2556 117.494 25.8651 117.061 25.3743C116.627 24.8836 116.307 24.3046 116.121 23.6775C116.622 23.1476 117.274 22.7827 117.989 22.6316C118.704 22.4806 119.448 22.5504 120.122 22.8319V22.7304ZM117.341 19.6862C117.309 19.4789 117.323 19.2672 117.38 19.0655C117.438 18.8639 117.539 18.6771 117.676 18.5179C117.812 18.3588 117.982 18.231 118.173 18.1435C118.364 18.0559 118.572 18.0105 118.782 18.0105C118.993 18.0105 119.2 18.0559 119.391 18.1435C119.582 18.231 119.752 18.3588 119.889 18.5179C120.026 18.6771 120.127 18.8639 120.184 19.0655C120.242 19.2672 120.255 19.4789 120.223 19.6862C120.171 20.0295 119.996 20.3427 119.732 20.5689C119.467 20.7951 119.131 20.9195 118.782 20.9195C118.434 20.9195 118.097 20.7951 117.833 20.5689C117.569 20.3427 117.394 20.0295 117.341 19.6862ZM106.355 129.888C105.502 128.64 104.381 127.597 103.073 126.837C101.764 126.076 100.302 125.616 98.7934 125.491L97.5386 125.152C90.7108 124.387 83.8183 124.387 76.9902 125.152C76.0746 125.152 75.193 125.152 74.3793 125.152L106.185 93.4249L138.025 125.152L135.448 125.322C128.466 124.474 121.407 124.474 114.425 125.322H113.916C112.393 125.466 110.922 125.952 109.613 126.743C108.303 127.533 107.19 128.608 106.355 129.888ZM118.223 145.448C119.283 145.346 120.35 145.346 121.41 145.448C120.873 146.306 120.284 147.13 119.647 147.917C117.055 147.369 114.368 147.45 111.814 148.153C113.622 146.767 115.739 145.839 117.986 145.448H118.223ZM116.765 143.351C114.01 143.924 111.444 145.18 109.305 147.004C110.937 143.337 113.925 140.441 117.646 138.919C117.531 140.426 117.235 141.914 116.765 143.351ZM116.561 149.777C118.67 149.842 120.745 150.325 122.665 151.198C117.545 155.054 114.357 154.817 109.101 151.604C111.415 150.434 113.967 149.809 116.561 149.777ZM119.41 142.708C119.855 140.926 120.094 139.098 120.122 137.262C125.378 136.755 130.972 140.137 134.906 143.249C129.04 146.97 126.768 141.016 119.41 142.708ZM117.511 135.3C124.903 129.787 133.787 134.319 140.162 139.359C139.11 140.239 138.059 141.084 136.771 141.896C133.99 139.46 125.411 133.169 117.511 135.3ZM161.388 136.518C164.779 139.291 184.412 145.177 172.68 152.483C170.035 154.141 167.458 152.991 164.915 153.024C165.766 152.373 166.451 151.53 166.912 150.564C167.374 149.598 167.599 148.537 167.569 147.467C167.539 146.397 167.255 145.35 166.741 144.411C166.226 143.472 165.496 142.668 164.609 142.065C151.046 130.835 155.488 119.605 168.373 110.236V110.473C163.389 117.373 150.741 127.825 161.388 136.484V136.518ZM166.101 98.0926C168.78 99.5469 172.171 105.771 169.492 107.936C168.475 106.684 161.422 95.691 166.101 98.0926ZM159.557 152.991C156.912 153.261 155.963 154.175 153.623 152.619C153.978 151.672 154.385 150.746 154.844 149.845C156.346 150.993 157.92 152.044 159.557 152.991ZM154.776 77.3915C154.03 77.0737 153.316 76.6888 152.64 76.2417V70.1193C153.42 71.3369 153.454 71.303 154.674 70.8297C154.488 73.0148 154.522 75.2132 154.776 77.3915ZM151.385 34.5354V34.2986C166.475 27.1953 156.912 51.4479 158.167 53.8495C158.608 54.7289 160.88 53.3759 162.405 53.6127C162.405 53.9508 162.711 54.357 162.948 54.8303C158.608 55.1687 155.793 63.4559 159.557 59.6334C161.151 58.01 161.524 56.9615 163.965 56.7247L164.609 57.8406C162.405 59.2615 157.184 61.9673 158.574 65.519C160.676 66.094 164.135 58.3481 167.526 61.494C166.034 62.1705 160.269 65.9588 160.744 67.8868C162.202 70.2206 168.204 60.2761 168.475 64.5044C163.084 68.2926 162.372 73.0619 159.32 78.3387C158.948 78.3708 158.573 78.3708 158.201 78.3387C157.896 76.2078 158.37 73.5694 156.166 75.9033C155.895 72.0473 157.285 69.5779 154.166 69.4089C154.166 66.8044 154.742 64.7073 152.674 63.7601C152.674 62.5425 154.742 55.8452 152.301 57.6041C152.017 55.0775 152.589 52.5287 153.928 50.3655C154.81 49.6889 154.471 49.7228 153.725 49.7906C152.979 49.858 151.555 49.5538 151.453 49.2831C151.216 48.7756 151.453 47.7948 151.826 46.2727C152.421 44.4402 152.583 42.4955 152.301 40.59C153.386 39.7444 156.607 39.2708 156.234 37.8503C155.861 36.4295 152.063 38.2223 151.25 38.7298C149.859 39.237 150.165 35.3471 154.912 36.0575C156.607 36.4295 156.336 33.4191 151.351 34.5354H151.385ZM150.809 31.8631C150.809 33.4191 148.198 34.3663 148.13 37.0383H149.69C148.639 38.4591 145.892 40.962 149.69 39.9135C148.978 40.9281 148.13 41.3679 147.757 42.6871L150.131 42.3151C150.408 43.4942 150.408 44.7213 150.131 45.9007C149.767 47.1602 149.767 48.4969 150.131 49.7567C150.228 50.0191 150.391 50.2522 150.606 50.4332C150.809 58.4497 150.843 66.5001 150.843 74.7196C145.248 69.4428 136.432 66.9734 133.38 72.115C132.634 73.3665 131.888 81.1462 134.092 79.5902C134.092 80.0638 133.888 80.5374 133.753 81.0449C135.879 82.0454 138.312 82.179 140.535 81.4169C141.11 82.3419 141.952 83.0726 142.95 83.5133C143.948 83.9537 145.056 84.0836 146.129 83.8859C152.097 90.1099 150.843 100.122 150.843 107.834L116.934 74.0091V31.8292L150.809 31.8631ZM125.92 27.3983C125.92 27.1106 126.006 26.8294 126.166 26.5902C126.326 26.351 126.554 26.1646 126.82 26.0545C127.087 25.9444 127.38 25.9156 127.663 25.9717C127.945 26.0279 128.205 26.1664 128.409 26.3698C128.613 26.5732 128.752 26.8324 128.808 27.1145C128.864 27.3966 128.836 27.6891 128.725 27.9549C128.615 28.2207 128.428 28.4478 128.188 28.6076C127.948 28.7674 127.667 28.8528 127.378 28.8528C127.185 28.8574 126.994 28.8229 126.815 28.7515C126.636 28.68 126.473 28.5731 126.337 28.437C126.2 28.3011 126.093 28.1389 126.022 27.9603C125.95 27.7818 125.915 27.5906 125.92 27.3983ZM129.311 30.0028C129.753 29.6572 130.103 29.2073 130.328 28.6937C130.552 28.18 130.646 27.6186 130.6 27.06L134.804 28.3792C134.505 28.9227 134.165 29.4428 133.787 29.9352L129.311 30.0028ZM137.924 24.9629C138.619 22.7633 139.074 20.4951 139.28 18.1979L141.857 19.5509C139.921 22.8374 138.524 26.4116 137.72 30.1381H136.092C136.964 28.5129 137.592 26.7694 137.958 24.9629H137.924ZM136.364 23.0687C136.162 24.2147 135.878 25.345 135.516 26.4512L131.006 24.9967C131.21 23.4746 129.887 21.9524 130.226 20.9039L136.364 23.0687ZM130.735 14.0712L128.836 13.2256L130.125 9.30187L132.091 10.1475L130.735 14.0712ZM140.162 1.92803L145.553 2.40158L142.162 5.98702L134.126 8.35478L127.785 5.98702L140.162 1.92803ZM126.598 7.64446L129.04 8.79451L127.751 12.7859C126.971 12.4476 126.225 12.1432 125.445 11.8726L126.598 7.64446ZM124.937 13.6991C126.7 14.3418 128.328 15.086 130.091 15.8639L129.311 18.1302C127.615 17.4199 125.92 16.811 124.225 16.236L124.937 13.6991ZM124.937 19.5509C126.632 19.7755 128.193 20.5901 129.345 21.851C128.687 22.4472 127.916 22.9043 127.077 23.195C126.238 23.4857 125.348 23.6038 124.462 23.5422C123.8 23.4351 123.173 23.1742 122.631 22.7805C122.089 22.3867 121.648 21.8713 121.342 21.2759C121.68 20.6527 122.205 20.1509 122.844 19.8414C123.483 19.5319 124.203 19.4303 124.903 19.5509H124.937ZM119.206 5.51348L121.512 6.15614L120.63 10.3843L118.359 9.80926L119.206 5.51348ZM115.476 4.73551C116.087 4.73551 117.104 5.00609 118.019 5.24287L117.172 9.57248L114.798 9.13275L115.476 4.73551ZM114.425 10.9931C116.356 11.2948 118.269 11.7013 120.156 12.2108L119.579 14.9168C117.714 14.4433 115.816 14.0712 113.95 13.7668L114.425 10.9931ZM111.611 16.9125C113.434 16.708 115.271 17.1512 116.799 18.164C116.271 18.9825 115.58 19.684 114.77 20.2251C113.959 20.7663 113.045 21.1354 112.086 21.3098C111.37 21.3582 110.653 21.2432 109.989 20.9736C109.325 20.7039 108.732 20.2868 108.254 19.7538C108.444 18.9887 108.87 18.3025 109.472 17.7925C110.075 17.2825 110.823 16.9747 111.611 16.9125ZM106.999 3.95754H109.542V8.5239H107.169L106.999 3.95754ZM106.151 10.3166H109.271V13.1579C107.193 13.0396 105.11 13.0396 103.032 13.1579V10.3166C103.947 10.3166 105.066 10.3166 106.151 10.3166ZM105.1 3.95754V8.42243H102.727L102.523 3.88988L105.1 3.95754ZM103.032 17.4875C103.032 17.4875 101.913 20.87 99.6411 21.5127C98.9897 21.7455 98.2939 21.8269 97.6065 21.7507C96.919 21.6745 96.2578 21.4427 95.6737 21.073C95.6787 20.3401 95.9043 19.6257 96.3217 19.0224C96.7387 18.4192 97.3283 17.9551 98.0133 17.6905C99.6059 17.0294 101.378 16.9339 103.032 17.4199V17.4875ZM98.0473 13.7668C96.2164 14.0374 94.3173 14.4095 92.4185 14.883L91.7403 12.0417C93.6391 11.5682 95.5382 11.1961 97.471 10.8917L98.0473 13.7668ZM93.7749 19.7876C93.7749 20.0753 93.6894 20.3565 93.5292 20.5957C93.369 20.8349 93.1412 21.0213 92.8748 21.1314C92.6084 21.2415 92.3151 21.2703 92.0324 21.2142C91.7496 21.158 91.4897 21.0195 91.2859 20.8161C91.0819 20.6127 90.943 20.3535 90.8868 20.0714C90.8306 19.7893 90.8593 19.4968 90.9698 19.231C91.08 18.9653 91.2671 18.7381 91.5067 18.5783C91.7465 18.4185 92.0283 18.3332 92.3167 18.3332C92.5096 18.3285 92.7013 18.363 92.8803 18.4344C93.0594 18.5059 93.2218 18.6129 93.3582 18.7488C93.4947 18.8849 93.6018 19.047 93.6734 19.2256C93.745 19.4042 93.7796 19.5954 93.7749 19.7876ZM96.5554 4.73551L97.2675 9.03129L95.3684 9.36952L94.4532 5.1414L96.5554 4.73551ZM92.622 5.58113L93.5036 9.70779L91.4353 10.1475L90.5874 6.12233L92.622 5.58113ZM93.9784 22.4937C95.8667 22.6357 97.6438 23.4383 98.9968 24.7599C98.3038 25.4516 97.4784 25.9968 96.5696 26.363C95.6608 26.7291 94.6871 26.9087 93.707 26.8909C93.0078 26.7779 92.3417 26.5134 91.7558 26.116C91.1702 25.7186 90.6787 25.198 90.3163 24.5908C90.6522 23.9183 91.1776 23.3584 91.8283 22.9798C92.4787 22.6012 93.2261 22.4205 93.9784 22.4598V22.4937ZM89.3328 19.3817C89.2945 20.3193 89.0676 21.2396 88.6657 22.0879C88.2638 22.9363 87.6949 23.6954 86.9932 24.3202C86.4246 24.7346 85.7671 25.0114 85.0725 25.1288C84.3783 25.2462 83.6658 25.201 82.9919 24.9967C82.7811 24.2813 82.795 23.5186 83.0311 22.8111C83.2676 22.1037 83.7155 21.4853 84.3144 21.0392C85.7297 19.8929 87.5109 19.2927 89.3328 19.3479V19.3817ZM87.8409 15.9992C86.1455 16.5404 84.4502 17.1831 82.7545 17.8596L81.9068 15.4919C83.5988 14.743 85.3306 14.088 87.0948 13.53L87.8409 15.9992ZM82.7545 29.9013H78.3466C77.9614 29.4772 77.6413 28.9985 77.3971 28.4807L81.5679 27.2291C81.537 27.7515 81.6284 28.2739 81.8343 28.7552C82.0402 29.2365 82.3554 29.6636 82.7545 30.0028V29.9013ZM86.5864 11.5343L84.9586 12.2785L83.6025 8.5239L85.5013 7.64446L86.5864 11.5343ZM70.3104 5.88556L66.9194 2.3001L72.1752 1.92803L84.7212 6.02087H84.4162L79.0249 8.55774L70.3104 5.88556ZM80.008 10.1475L81.8729 9.26806L83.0598 12.9212L81.2965 13.733L80.008 10.1475ZM81.8729 21.1406C81.4802 22.478 81.2079 23.8477 81.0592 25.2335L76.6173 26.6541C76.2278 25.5536 75.933 24.422 75.7357 23.2716L81.8729 21.1406ZM69.8356 19.7876L72.65 18.3332C72.871 21.097 73.5112 23.8114 74.5488 26.3835C74.9022 27.5634 75.3915 28.6985 76.0067 29.766H73.769C72.9679 26.2829 71.6418 22.9413 69.8356 19.8553V19.7876ZM77.1597 79.6579C76.1426 79.3595 75.097 79.1668 74.04 79.083V78.7785C75.3964 78.2036 78.6516 78.3049 79.4317 77.9667C78.9131 77.4417 78.2874 77.034 77.5971 76.7713C76.9066 76.509 76.1679 76.3975 75.4304 76.4446C76.5402 76.0939 77.5913 75.5809 78.5501 74.9225C78.0413 74.3137 76.0407 74.1108 75.6338 74.1108C76.3293 73.8305 76.9631 73.4167 77.499 72.8929C72.8534 67.8193 65.0206 75.6329 61.528 78.0342V49.9935C62.9183 45.7313 60.6463 43.9724 64.2068 40.2519C63.2647 40.1238 62.3087 40.3532 61.528 40.8946C62.0182 39.6339 62.756 38.4841 63.6981 37.5119C62.9606 37.3921 62.204 37.4984 61.528 37.8164C61.528 36.8354 62.7149 36.0575 63.2573 35.2119C62.702 34.9914 62.0833 34.9914 61.528 35.2119V31.8292H95.4363V74.0091L61.528 107.834C61.528 103.166 60.6464 86.7611 69.259 86.7611C70.6154 86.7611 72.65 82.7361 74.3793 81.6198C75.5999 80.9094 81.2286 81.1801 77.1597 79.6579ZM56.8148 74.5505C56.9843 73.7046 57.2556 73.0958 57.7641 73.874C58.2728 74.6518 59.4597 63.7262 59.8666 63.7262V79.1505C59.1683 79.6524 58.3882 80.0302 57.5606 80.2667C55.2889 80.7403 56.4756 75.6329 56.679 74.415L56.8148 74.5505ZM55.1871 96.0968C56.7759 96.252 58.379 96.0318 59.8666 95.4542C59.8666 103.437 57.1877 117.576 63.4268 123.833C66.6144 127.013 72.3447 127.52 78.5501 127.216H82.1103C87.5862 126.601 93.114 126.601 98.59 127.216C99.6985 127.416 100.78 127.745 101.811 128.197C102.819 128.677 103.684 129.412 104.32 130.328C104.966 131.116 105.387 132.062 105.541 133.068C105.534 133.57 105.414 134.064 105.191 134.515C104.969 134.965 104.648 135.361 104.253 135.672L101.675 138.277C93.6055 126.235 81.0252 129.719 71.1581 137.6C68.8314 135.879 66.6431 133.979 64.6137 131.918L54.136 145.042C55.0015 146.227 55.9415 147.357 56.9503 148.424C46.371 155.629 45.0825 145.042 51.0502 136.755C59.0865 125.694 53.8986 118.557 45.8963 109.153C48.2701 104.723 50.0596 100.005 51.2197 95.116C52.4517 95.5995 53.7387 95.929 55.0515 96.0968H55.1871ZM61.2227 161.278C61.4261 160.939 61.4601 161.751 60.6803 166.453C59.7308 166.182 58.8152 165.979 57.8999 165.641C57.9801 165.423 57.9801 165.183 57.8999 164.965C57.3572 159.891 59.4258 163.747 61.2227 161.278ZM57.1538 153.565C56.5095 153.135 55.8288 152.762 55.1191 152.45C56.0347 151.908 57.2556 151.164 58.5102 150.352C58.8161 150.968 59.0877 151.601 59.3239 152.246L57.1538 153.565ZM49.0835 122.075C46.7779 116.223 44.9807 111.623 44.9807 111.623C43.6243 107.259 51.4911 122.278 51.7624 124.138C54.2715 136.315 32.7396 139.055 45.4215 152.416C45.4215 147.173 61.2227 161.176 56.2042 157.083C53.6951 155.054 45.3536 154.31 45.3536 154.31C42.6071 154.513 37.4192 145.752 37.9955 143.283C40.1317 134.759 53.0509 133.102 48.948 122.075H49.0835ZM48.8122 95.0144C45.4215 99.6147 48.8122 90.9216 43.3193 94.4056C41.7594 94.1688 46.2692 89.5347 43.1158 91.4291C37.7581 94.6424 40.1996 89.8054 38.0974 90.6848C37.7581 90.6848 32.5023 93.0864 34.7063 90.6848C36.9104 88.2832 33.011 90.4142 31.7564 87.979C34.2316 88.351 44.7772 87.3363 42.3358 89.8392C41.4541 90.279 48.2019 88.52 46.5065 90.4142C42.8445 94.7102 52.7119 89.7715 48.6767 95.1499L48.8122 95.0144ZM34.0281 44.277C33.8803 44.4851 33.7975 44.7324 33.7911 44.9874C33.7911 45.2833 33.9087 45.5672 34.1186 45.7766C34.3285 45.986 34.6131 46.1036 34.9098 46.1036C35.2067 46.1036 35.4914 45.986 35.7013 45.7766C35.9109 45.5672 36.0288 45.2833 36.0288 44.9874C36.2977 45.3101 36.4418 45.7178 36.4357 46.1372C36.4372 46.4741 36.3455 46.8048 36.1705 47.0927C35.9958 47.3807 35.7442 47.6147 35.4441 47.7693C35.1444 47.9235 34.8073 47.9922 34.4705 47.9676C34.134 47.9429 33.8108 47.8259 33.5364 47.6295C33.2623 47.433 33.048 47.1648 32.9171 46.8544C32.7859 46.544 32.7437 46.2034 32.7946 45.8705C32.8455 45.5376 32.9875 45.2254 33.2055 44.968C33.4231 44.7105 33.7077 44.5184 34.0281 44.4121V44.277ZM37.4871 67.1428C41.8273 67.447 38.5042 64.0646 43.6243 68.9017C45.286 70.4574 47.2863 72.6899 48.7106 74.3473C48.7106 74.7534 49.287 75.2945 47.829 74.6518C41.1714 71.9293 34.3128 69.7239 27.3144 68.0558C29.3828 66.2633 34.7063 66.9399 37.4871 67.1428ZM16.4637 41.7063C16.2603 38.1546 26.0259 37.4106 20.1936 43.0594C20.2275 42.0783 18.193 41.4356 16.4976 41.7063H16.4637ZM17.6505 65.6881L20.0241 63.7262C20.4012 63.4155 20.6831 63.0053 20.8379 62.5425L28.3995 61.4601C27.2027 63.1097 25.5585 64.3843 23.6602 65.1332C21.7619 65.8824 19.6887 66.0749 17.6844 65.6881H17.6505ZM18.5999 147.308C19.1086 156.035 23.1098 152.483 28.942 156.711C24.873 157.252 13.4459 156.711 13.005 150.86C12.7677 147.612 16.0907 147.139 18.6339 147.308H18.5999ZM5.34176 154.073C-4.62732 145.921 12.1234 134.624 17.6844 145.109C13.2424 145.109 9.37685 147.714 10.9027 152.551C11.7504 155.155 13.751 155.595 15.5482 156.508C19.7267 158.22 24.225 159.016 28.7385 158.842C30.364 158.826 31.9654 159.234 33.3839 160.026C24.6695 160.094 12.5303 159.789 5.37566 153.904L5.34176 154.073ZM22.4655 176.296C14.3614 182.114 3.57852 167.299 17.1419 161.143C25.4834 162.834 33.2144 161.143 41.2167 163.578C35.3867 164.491 29.482 164.842 23.5845 164.626C14.5648 164.356 18.939 174.774 24.5 172.339C24.3538 173.813 23.6359 175.173 22.4994 176.127L22.4655 176.296ZM25.619 168.212C24.4661 168.212 22.4655 172.947 20.9057 169.159C19.3459 165.371 27.9587 167.366 29.1455 167.468C28.3317 167.907 27.5857 168.381 26.8397 168.855C26.7536 168.611 26.5922 168.402 26.3789 168.256C26.1657 168.11 25.9114 168.035 25.6529 168.043L25.619 168.212ZM37.7921 183.568L36.1983 180.863C37.3006 180.082 38.5116 179.466 39.7927 179.036L41.2507 181.099C40.5391 181.188 39.8585 181.443 39.2636 181.842C38.6688 182.242 38.1764 182.775 37.826 183.399L37.7921 183.568ZM42.8784 183.839C44.3025 187.391 43.3532 191.517 38.8432 190.604V189.758C39.0806 188.541 39.7927 180.626 42.9124 183.67L42.8784 183.839ZM60.4769 186.511C53.6951 176.364 40.5049 171.357 31.553 181.911L27.3144 171.121C30.9288 168.565 35.0576 166.825 39.414 166.022C43.7706 165.218 48.2501 165.371 52.5415 166.468C56.833 167.566 60.8337 169.582 64.2652 172.378C67.6966 175.173 70.4768 178.68 72.4126 182.655L60.4769 186.511ZM62.8165 156.982C67.1348 161.482 72.0388 165.384 77.3971 168.584C77.4416 171.784 76.8776 174.963 75.7357 177.953C72.6065 173.177 68.0862 169.47 62.7825 167.332C63.4169 163.856 63.44 160.297 62.8504 156.813L62.8165 156.982ZM69.7677 186.004C77.3292 183.568 78.8551 179.848 79.6691 171.425C80.8159 174.165 82.4989 176.649 84.6197 178.731C83.8735 185.53 75.5999 192.498 69.8016 185.835L69.7677 186.004ZM103.303 176.769C94.6566 189.961 81.7374 172.44 79.5672 164.39C81.5339 165.235 83.6025 166.013 85.6708 166.69C87.6375 177.615 103.337 174.605 98.2847 165.235C104.829 164.559 106.253 172.136 103.337 176.6L103.303 176.769ZM106.694 167.772H106.389C104.219 162.225 99.0308 162.563 93.9784 163.713C95.057 164.584 95.9454 165.666 96.5893 166.893C81.257 164.555 67.2561 156.859 57.0859 145.177L64.7832 135.3C71.3325 141.639 78.9403 146.79 87.2646 150.521C86.5524 153.43 95.9111 156.373 97.437 156.339C100.733 155.894 103.873 154.665 106.592 152.754C108.966 154.31 128.328 160.331 125.886 150.521C134.213 146.796 141.822 141.644 148.367 135.3L156.166 145.008C146.002 156.697 131.998 164.395 116.663 166.724C117.307 165.497 118.195 164.415 119.274 163.544C114.391 162.428 109.101 162.022 106.931 167.434L106.694 167.772ZM150.198 167.366C144.904 169.586 140.394 173.331 137.245 178.122C136.063 175.095 135.475 171.867 135.516 168.618C140.875 165.432 145.779 161.541 150.097 157.049C149.536 160.413 149.582 163.85 150.232 167.197L150.198 167.366ZM114.696 165.066C109.644 174.436 125.344 177.446 127.31 166.521C129.379 165.844 131.447 165.066 133.414 164.22C132.435 168.468 130.537 172.451 127.853 175.89C113.306 192.803 101.235 163.984 114.696 165.066ZM127.989 179.002C130.296 176.947 132.115 174.405 133.312 171.561C134.228 179.611 135.55 183.365 142.874 185.699C137.245 192.397 129.04 186.038 127.989 179.002ZM171.12 183.264C173.968 183.264 173.867 187.83 174.07 189.758V190.333C168.441 191.686 168.17 183.264 171.12 183.264ZM175.155 183.264C174.828 182.613 174.35 182.048 173.76 181.619C173.17 181.189 172.486 180.907 171.764 180.795L173.256 178.731C174.578 179.14 175.826 179.757 176.952 180.558L175.155 183.264ZM181.496 181.64C172.544 171.188 159.557 176.33 152.776 186.342L140.67 182.655C142.62 178.701 145.407 175.216 148.839 172.442C152.271 169.668 156.266 167.67 160.547 166.586C164.829 165.502 169.295 165.358 173.638 166.164C177.981 166.971 182.097 168.708 185.701 171.256L181.496 181.64ZM187.159 168.11C186.582 168.11 186.379 168.11 186.107 168.685C185.386 168.206 184.639 167.766 183.87 167.366C185.192 167.366 193.228 165.844 191.906 169.057C190.312 172.778 188.311 168.212 187.159 168.043V168.11ZM188.21 172.508C192.482 174.436 201.366 163.815 184.039 165.066L185.802 162.394C189.016 162.277 192.215 161.893 195.365 161.244C214.319 167.4 190.583 186.038 188.21 172.508ZM209.877 149.642C207.978 158.842 192.075 160.026 185.565 160.06C186.881 158.955 188.526 158.313 190.244 158.233C194.992 157.557 200.993 155.494 201.773 151.232C202.18 146.428 198.077 144.94 193.94 145.143C199.196 138.683 211.81 139.968 209.877 149.473V149.642Z" fill="#333333"/>
<path fill-rule="evenodd" clip-rule="evenodd" d="M150.605 142.437C150.772 142.245 150.854 141.994 150.835 141.74C150.816 141.486 150.697 141.25 150.504 141.084C150.31 140.918 150.059 140.836 149.804 140.855C149.55 140.874 149.314 140.993 149.147 141.186C127.547 165.743 85.5013 165.743 63.9015 141.186C63.7352 140.993 63.4987 140.874 63.2443 140.855C62.99 140.836 62.7387 140.918 62.5451 141.084C62.3519 141.25 62.2324 141.486 62.2133 141.74C62.1945 141.994 62.2772 142.245 62.4436 142.437C84.9586 167.874 128.226 167.908 150.605 142.437Z" fill="#333333"/>
<path fill-rule="evenodd" clip-rule="evenodd" d="M186.108 37.2068C186.856 36.4983 187.715 35.9157 188.651 35.4818C188.789 35.422 188.898 35.3109 188.955 35.1717C189.012 35.0328 189.012 34.877 188.956 34.7378C188.929 34.6664 188.889 34.6011 188.837 34.5453C188.785 34.4896 188.723 34.4446 188.653 34.4132C188.584 34.3818 188.509 34.3646 188.433 34.3621C188.357 34.3597 188.281 34.3723 188.21 34.3994C187.132 34.8958 186.146 35.5705 185.294 36.3951C185.235 36.4472 185.187 36.5106 185.154 36.5817C185.121 36.6525 185.103 36.7298 185.1 36.8081C185.098 36.8863 185.112 36.9642 185.141 37.0372C185.17 37.1098 185.213 37.176 185.269 37.2315C185.325 37.2869 185.391 37.3303 185.464 37.3593C185.537 37.3882 185.615 37.4021 185.694 37.3996C185.772 37.3974 185.849 37.3793 185.921 37.346C185.992 37.3128 186.055 37.2657 186.108 37.2068Z" fill="#333333"/>
<path fill-rule="evenodd" clip-rule="evenodd" d="M66.7838 182.08C59.1884 169.124 42.7087 166.689 30.2983 174.063C30.078 174.193 29.9185 174.405 29.8549 174.652C29.7913 174.9 29.8288 175.162 29.9592 175.382C30.0896 175.602 30.3022 175.761 30.5502 175.824C30.7982 175.888 31.0613 175.85 31.2817 175.72C43.014 168.955 57.8659 170.782 65.19 183.026C65.3382 183.184 65.5358 183.287 65.7503 183.317C65.9646 183.347 66.1831 183.304 66.3689 183.193C66.5551 183.082 66.6977 182.912 66.773 182.709C66.8487 182.507 66.8524 182.284 66.7838 182.08Z" fill="#333333"/>
<path fill-rule="evenodd" clip-rule="evenodd" d="M178.546 42.552C177.393 42.552 176.24 43.4315 177.8 43.9386C180.208 44.7504 183.293 42.552 178.546 42.552Z" fill="#333333"/>
<path fill-rule="evenodd" clip-rule="evenodd" d="M181.767 46.374C181.971 46.746 184.785 52.8006 184.31 49.4521C183.598 44.4121 181.157 45.3255 181.767 46.374Z" fill="#333333"/>
<path fill-rule="evenodd" clip-rule="evenodd" d="M146.706 182.08C146.58 182.299 146.547 182.56 146.613 182.804C146.68 183.048 146.842 183.256 147.062 183.382C147.282 183.507 147.544 183.54 147.788 183.474C148.033 183.407 148.242 183.246 148.367 183.026C155.624 170.782 170.476 169.057 182.276 175.72C182.496 175.846 182.757 175.879 183.002 175.812C183.247 175.746 183.455 175.585 183.581 175.365C183.707 175.145 183.74 174.885 183.674 174.64C183.607 174.396 183.445 174.188 183.225 174.063C170.781 166.689 154.301 169.124 146.706 182.08Z" fill="#333333"/>
<path fill-rule="evenodd" clip-rule="evenodd" d="M110.152 121.499C110.933 121.871 111.441 121.702 112.357 121.059C113.272 120.417 113.645 120.518 113.679 120.18C117.273 119.706 119.817 119.199 119.817 119.199C120.071 119.438 120.356 119.643 120.664 119.808C121.452 120.4 122.292 120.921 123.173 121.364C124.767 122.176 124.699 121.702 124.225 120.078C123.887 118.279 123.887 116.432 124.225 114.633C124.462 113.212 123.919 112.671 122.021 114.261C120.122 115.85 120.054 116.425 120.054 116.425L117.375 116.019C115.68 115.783 111.475 115.242 106.965 114.835C107.203 113.889 106.694 113.753 106.694 113.753C105.351 113.056 103.97 112.434 102.557 111.893C100.896 111.351 100.556 111.419 99.5392 112.468C99.0095 113.024 98.5434 113.636 98.1489 114.294C94.3494 114.265 90.5889 115.062 87.1287 116.628C86.0776 117.17 86.5184 117.508 86.5184 117.508C86.4755 117.81 86.5317 118.118 86.6783 118.386C86.825 118.654 87.0543 118.868 87.3322 118.996C88.0959 119.341 88.8905 119.613 89.7057 119.808C91.0047 120.19 92.3312 120.473 93.6731 120.654H94.012L95.5719 122.514C95.5719 122.514 95.7753 122.987 96.4535 122.514L98.0473 121.601C98.1285 121.336 98.1285 121.053 98.0473 120.789H100.319C100.611 121.282 100.99 121.717 101.438 122.074C101.688 122.227 101.976 122.307 102.269 122.307C102.562 122.307 102.849 122.227 103.1 122.074C103.642 121.736 103.913 121.398 103.812 120.924H106.626L109.271 120.721C109.517 121.03 109.815 121.293 110.152 121.499Z" fill="#333333"/>
</svg>
