<svg width="555" height="134" viewBox="0 0 555 134" fill="none" xmlns="http://www.w3.org/2000/svg">
<g clip-path="url(#clip0_23_2)">
<path d="M221.42 100.319V33.8224H193.853L179.583 89.4923L165.314 33.8224H137.729V100.319H152.936V41.8055L168.16 100.319H190.988L206.213 41.8055V100.319H221.42Z" fill="#1C1C1C"/>
<path d="M247.289 72.7843L257.457 45.6028L267.642 72.7843H247.289ZM220.359 100.337H236.945L242.073 86.5605H272.699L277.845 100.337H294.484L268.402 33.8224H246.529L220.359 100.337Z" fill="#1C1C1C"/>
<path d="M308.718 61.3747V47.6869H326.312C331.723 47.6869 334.393 50.2478 334.393 54.3453C334.393 58.4429 331.723 61.4101 326.312 61.4101L308.718 61.3747ZM349.989 100.337V98.8001C347.62 95.4797 346.86 91.1172 346.453 84.6706C346.081 77.447 341.891 72.4134 336.285 70.8944C340.009 69.5387 343.225 67.0724 345.498 63.8297C347.782 60.7666 349.022 57.0521 349.034 53.2327C349.034 42.0174 340.653 33.8047 326.684 33.8047H293.529V100.337H308.754V75.1509H321.132C327.32 75.1509 330.839 78.5773 330.839 85.1298C330.771 88.3018 330.895 91.4749 331.211 94.6319C331.512 96.6109 332.108 98.5337 332.979 100.337H349.989Z" fill="#1C1C1C"/>
<path d="M435.343 100.319V33.8224H407.758L393.488 89.4923L379.218 33.8224H351.634V100.319H366.858V41.8055L382.083 100.319H404.911L420.118 41.8055V100.319H435.343Z" fill="#1C1C1C"/>
<path d="M438.844 33.8224V73.2435C438.844 90.3578 449.453 101.273 466.906 101.273C484.358 101.273 494.968 90.3578 494.968 73.2435V33.8224H479.743V73.2435C479.743 82.0744 475.27 87.4966 466.906 87.4966C458.542 87.4966 454.068 81.9861 454.068 73.2435V33.8224H438.844Z" fill="#1C1C1C"/>
<path d="M513.711 61.3747V47.6869H531.394C536.822 47.6869 539.475 50.2478 539.475 54.3453C539.475 58.4429 536.822 61.4101 531.394 61.4101L513.711 61.3747ZM555 100.337V98.8001C552.613 95.4797 551.853 91.1172 551.464 84.6706C551.074 77.447 546.884 72.4134 541.278 70.8944C545.004 69.5348 548.225 67.0697 550.509 63.8297C552.787 60.7637 554.026 57.0511 554.045 53.2327C554.045 42.0174 545.681 33.8047 531.695 33.8047H498.487V100.337H513.711V75.1509H526.089C532.278 75.1509 535.797 78.5773 535.797 85.1298C535.729 88.3018 535.853 91.4749 536.168 94.6319C536.478 96.609 537.074 98.5306 537.936 100.337H555Z" fill="#1C1C1C"/>
<path d="M0 45.5321L79.0407 0V28.7357L0 74.2678V45.5321Z" fill="#1C1C1C"/>
<path d="M24.9677 88.4679L103.991 134V105.264L24.9677 59.7322V88.4679Z" fill="#1C1C1C"/>
</g>
<defs>
<clipPath id="clip0_23_2">
<rect width="555" height="134" fill="white"/>
</clipPath>
</defs>
</svg>
