<svg width="865" height="314" viewBox="0 0 865 314" fill="none" xmlns="http://www.w3.org/2000/svg">
<path d="M237.359 208.902V104.894H194.27L171.983 191.963L149.695 104.894H106.606V208.902H130.379V117.375L154.153 208.902H189.813L213.586 117.375V208.902H237.359Z" fill="black"/>
<path d="M235.697 208.902H261.699L269.723 187.357H317.566L325.59 208.902H351.592L310.732 104.894H276.557L235.697 208.902ZM277.746 165.813L293.644 123.318L309.543 165.813H277.746Z" fill="black"/>
<path d="M438.187 208.902V206.525C434.472 201.324 433.284 194.489 432.689 184.386C432.095 173.093 425.557 165.218 416.791 162.841C422.734 160.612 427.489 157.046 431.204 151.846C434.918 146.645 436.85 141.148 436.85 135.353C436.85 117.82 423.774 104.894 401.933 104.894H349.929V208.902H373.702V169.527H393.018C402.676 169.527 408.173 174.876 408.173 185.129C408.173 191.815 408.322 196.867 408.768 199.987C409.213 203.107 410.105 206.079 411.442 208.902H438.187ZM373.702 147.983V126.438H401.19C409.659 126.438 413.819 130.45 413.819 136.839C413.819 143.228 409.659 147.983 401.19 147.983H373.702Z" fill="black"/>
<path d="M571.509 208.902V104.894H528.42L506.133 191.963L483.845 104.894H440.756V208.902H464.529V117.375L488.303 208.902H523.962L547.736 117.375V208.902H571.509Z" fill="black"/>
<path d="M576.979 104.894V166.556C576.979 193.301 593.62 210.388 620.811 210.388C648.002 210.388 664.643 193.301 664.643 166.556V104.894H640.87V166.556C640.87 180.225 633.886 188.843 620.811 188.843C607.736 188.843 600.752 180.225 600.752 166.556V104.894H576.979Z" fill="black"/>
<path d="M758.407 208.902V206.525C754.693 201.324 753.504 194.489 752.91 184.386C752.315 173.093 745.778 165.218 737.011 162.841C742.955 160.612 747.709 157.046 751.424 151.846C755.138 146.645 757.07 141.148 757.07 135.353C757.07 117.82 743.995 104.894 722.153 104.894H670.149V208.902H693.922V169.527H713.238C722.896 169.527 728.393 174.876 728.393 185.129C728.393 191.815 728.542 196.867 728.988 199.987C729.433 203.107 730.325 206.079 731.662 208.902H758.407ZM693.922 147.983V126.438H721.41C729.879 126.438 734.04 130.45 734.04 136.839C734.04 143.228 729.879 147.983 721.41 147.983H693.922Z" fill="black"/>
</svg>
