<svg width="1920" height="1093" viewBox="0 0 1920 1093" fill="none" xmlns="http://www.w3.org/2000/svg">
<g clip-path="url(#clip0_119_52)">
<g opacity="0.06">
<path d="M2171.92 629.972V430.718L2101.95 471.117V589.573L2171.92 629.972Z" fill="#1C1C1C"/>
<path d="M1921.42 485.345L1843.48 530.345L1921.42 575.345L1921.51 575.291L1921.51 485.398L1921.42 485.345Z" fill="#1C1C1C"/>
<path d="M1999.85 530.062V440.062L1921.51 485.291V485.398L1999.36 530.345L1999.85 530.062Z" fill="#1C1C1C"/>
<path d="M1999.85 620.627V530.627L1999.36 530.345L1921.51 575.291V575.398L1999.85 620.627Z" fill="#1C1C1C"/>
<path d="M2101.95 471.117L1999.85 530.062V530.627L2101.95 589.573V471.117Z" fill="#1C1C1C"/>
<path d="M1601.16 381.117L1499.06 440.062V530.062L1601.16 471.117V381.117Z" fill="#1C1C1C"/>
<path d="M1601.16 589.573L1499.06 530.627V620.627L1601.16 679.573V589.573Z" fill="#1C1C1C"/>
<path d="M1420.72 485.398L1420.72 575.291L1498.57 530.345L1420.72 485.398Z" fill="#1C1C1C"/>
<path d="M1671.13 629.972V629.849V430.718L1601.16 471.117V589.573L1671.13 629.972Z" fill="#1C1C1C"/>
<path d="M1099.94 589.573V679.573L1169.91 719.972V629.972L1099.94 589.573Z" fill="#1C1C1C"/>
<path d="M1099.94 381.117V471.117L1169.91 430.718V340.718L1099.94 381.117Z" fill="#1C1C1C"/>
<path d="M919.502 575.291L919.502 485.398L919.409 485.345L841.467 530.345L919.409 575.345L919.502 575.291Z" fill="#1C1C1C"/>
<path d="M1099.94 381.117L997.841 440.062V530.062L1099.94 471.117V381.117Z" fill="#1C1C1C"/>
<path d="M1099.94 471.117V589.573L1169.91 629.972V430.718L1099.94 471.117Z" fill="#1C1C1C"/>
<path d="M1420.41 286.089L1342.47 241.089L1170.02 340.655L1247.96 385.655L1420.41 286.089Z" fill="#1C1C1C"/>
<path d="M1342.69 530.345L1420.63 485.345L1247.96 385.655L1170.02 430.655L1342.69 530.345Z" fill="#1C1C1C"/>
<path d="M1342.47 819.6L1420.41 774.6L1247.96 675.034L1170.02 720.034L1342.47 819.6Z" fill="#1C1C1C"/>
<path d="M1420.72 774.423V575.398L1420.63 575.345L1247.96 675.034L1420.41 774.6L1420.72 774.423Z" fill="#1C1C1C"/>
<path d="M1671.02 719.911L1601.16 760.248V878.952L1671.13 919.351V719.972L1671.02 719.911Z" fill="#1C1C1C"/>
<path d="M1921.51 864.53V774.53L1748.97 674.911L1671.13 719.849V719.972L1921.51 864.53Z" fill="#1C1C1C"/>
<path d="M1999.85 819.759V620.627L1921.51 575.398V774.53L1999.85 819.759Z" fill="#1C1C1C"/>
<path d="M1748.97 385.779L1921.42 485.345L1921.51 485.291V286.16L1748.97 385.779Z" fill="#1C1C1C"/>
<path d="M1999.85 440.062L2101.95 381.117V181.985L1999.85 240.93V440.062Z" fill="#1C1C1C"/>
<path d="M1601.16 181.738V300.441L1671.02 340.779L1671.13 340.718V141.339L1601.16 181.738Z" fill="#1C1C1C"/>
<path d="M1499.06 331.496V241.496L1498.36 241.089L1420.72 285.912V286.266L1499.06 331.496Z" fill="#1C1C1C"/>
<path d="M997.841 729.441V620.627L919.502 575.398V774.67L997.841 729.441Z" fill="#1C1C1C"/>
<path d="M1099.94 1049.63L1169.91 1009.23V919.228L1099.94 959.627V1049.63Z" fill="#1C1C1C"/>
<path d="M1499.06 910.006L1499.06 820.006L1498.36 819.6L1420.72 864.423V864.777L1499.06 910.006Z" fill="#1C1C1C"/>
<path d="M1921.42 575.345L1843.48 530.345L1671.13 629.849V629.972L1748.97 674.911L1921.42 575.345Z" fill="#1C1C1C"/>
<path d="M2171.92 141.586V51.586L2101.95 91.9849V181.985L2171.92 141.586Z" fill="#1C1C1C"/>
<path d="M1030.01 1000L1099.94 959.627M2762.06 0L2101.95 381.117M1030.01 1090L1099.94 1049.63M2762.06 90L2171.92 430.718M1097.85 9.85742L1498.36 241.089M2829.9 1009.86L2171.92 629.972M1097.85 99.8574L1342.47 241.089M2829.9 1099.86L2101.95 679.573M1999.85 60.5977V150.93M1999.85 1052.65L1999.85 819.759M2101.95 60.5977V91.9849M2101.95 1052.65V679.573M1921.51 60.5977V196.16M1921.51 1052.65V864.53M2171.92 41.2051V51.586M2171.92 1033.26V629.972M2101.95 381.117L1999.85 440.062M2101.95 381.117V471.117M2101.95 381.117V181.985M1999.85 440.062V530.062M1999.85 440.062L1921.51 485.291M1999.85 440.062V240.93M1999.85 530.062L2101.95 471.117M1999.85 530.062V530.627M1999.85 530.062L1999.36 530.345M2101.95 471.117V589.573M2101.95 471.117L2171.92 430.718M2101.95 589.573L1999.85 530.627M2101.95 589.573V679.573M2101.95 589.573L2171.92 629.972M1999.85 530.627V620.627M1999.85 530.627L1999.36 530.345M1999.85 620.627L2101.95 679.573M1999.85 620.627L1921.51 575.398M1999.85 620.627V819.759M1921.51 485.398L1921.51 575.291M1921.51 485.398L1999.36 530.345M1921.51 485.398L1921.42 485.345M1921.51 485.398V485.291M1921.51 575.291L1999.36 530.345M1921.51 575.291L1921.42 575.345M1921.51 575.291V575.398M2171.92 629.972V430.718M2171.92 430.718V141.586M1921.42 485.345L1843.48 530.345M1921.42 485.345L1921.51 485.291M1921.42 485.345L1748.97 385.779M1843.48 530.345L1921.42 575.345M1843.48 530.345L1499.06 331.496M1843.48 530.345L1671.13 629.849M1921.42 575.345L1921.51 575.398M1921.42 575.345L1748.97 674.911M1921.51 485.291V286.16M1921.51 575.398V774.53M529.219 1000L919.502 774.67M2261.27 0L2171.92 51.586M529.219 1090L1099.94 760.495M2261.27 90L2171.92 141.586M597.06 9.85742L1170.02 340.655M2329.11 1009.86L1999.85 819.759M597.06 99.8574L1170.02 430.655M2329.11 1099.86L1921.51 864.53M1499.06 60.5977V241.496M1499.06 1052.65V910.006M1601.16 60.5977V181.738M1601.16 1052.65V878.952M1420.72 60.5977V285.912M1420.72 1052.65V864.777M1671.13 41.2051V141.339M1671.13 1033.26V919.351M1601.16 381.117L1499.06 440.062M1601.16 381.117V471.117M1601.16 381.117L1671.02 340.779M1601.16 381.117V300.441M1499.06 440.062V530.062M1499.06 440.062V331.496M1499.06 440.062L1420.72 485.291M1499.06 530.062L1601.16 471.117M1499.06 530.062V530.627M1499.06 530.062L1498.57 530.345M1601.16 471.117V589.573M1601.16 471.117L1671.13 430.718M1601.16 589.573L1499.06 530.627M1601.16 589.573V679.573M1601.16 589.573L1671.13 629.972M1499.06 530.627V620.627M1499.06 530.627L1498.57 530.345M1499.06 620.627L1601.16 679.573M1499.06 620.627L1420.72 575.398M1499.06 620.627V820.006M1601.16 679.573V760.248M1601.16 679.573L1671.02 719.911M1420.72 485.398L1420.72 575.291M1420.72 485.398L1498.57 530.345M1420.72 485.398L1420.63 485.345M1420.72 485.398V485.291M1420.72 575.291L1498.57 530.345M1420.72 575.291L1420.63 575.345M1420.72 575.291V575.398M1671.13 629.972V719.849M1671.13 629.972L1748.97 674.911M1671.13 629.972V629.849M1671.13 430.718L1748.97 385.779M1671.13 430.718V340.718M1671.13 430.718V629.849M28 1000L841.467 530.345M28 1090L919.409 575.345M95.8409 9.85742L919.409 485.345M1827.89 1009.86L1671.13 919.351M95.8409 99.8574L841.467 530.345M1827.89 1099.86L1499.06 910.006M997.841 60.5977V440.062M997.841 1052.65L997.841 729.441M1099.94 60.5977V381.117M1099.94 1052.65V1049.63M919.502 60.5977V485.291M919.502 1052.65V774.67M1169.91 41.2051V340.718M1169.91 1033.26V1009.23M1099.94 381.117L997.841 440.062M1099.94 381.117V471.117M1099.94 381.117L1169.91 340.718M997.841 440.062V530.062M997.841 440.062L919.502 485.291M997.841 530.062L1099.94 471.117M997.841 530.062V530.627M997.841 530.062L997.351 530.345M1099.94 471.117V589.573M1099.94 471.117L1169.91 430.718M1099.94 589.573L997.841 530.627M1099.94 589.573V679.573M1099.94 589.573L1169.91 629.972M997.841 530.627V620.627M997.841 530.627L997.351 530.345M997.841 620.627L1099.94 679.573M997.841 620.627L919.502 575.398M997.841 620.627V729.441M1099.94 679.573L1169.91 719.972M1099.94 679.573V760.495M919.502 485.398L919.502 575.291M919.502 485.398L997.351 530.345M919.502 485.398V485.291M919.502 485.398L919.409 485.345M919.502 575.291L997.351 530.345M919.502 575.291V575.398M919.502 575.291L919.409 575.345M1169.91 629.972V430.718M1169.91 629.972V719.972M1169.91 629.972L1170.02 630.034M1169.91 430.718V340.718M1169.91 430.718L1170.02 430.655M919.502 575.398L919.409 575.345M919.502 575.398V774.67M919.502 485.291L919.409 485.345M1169.91 719.972L1170.02 720.034M1169.91 719.972V720.097M1169.91 340.718L1170.02 340.655M919.409 485.345L841.467 530.345M841.467 530.345L919.409 575.345M1420.41 286.089L1342.47 241.089M1420.41 286.089L1247.96 385.655M1420.41 286.089L1420.72 285.912M1420.41 286.089L1420.72 286.266M1342.47 241.089L1170.02 340.655M1342.47 241.089L1760.05 0V90L1671.13 141.339M1170.02 340.655L1247.96 385.655M1247.96 385.655L1420.63 485.345M1247.96 385.655L1170.02 430.655M1342.69 530.345L1420.63 485.345M1342.69 530.345L1170.02 430.655M1342.69 530.345L1420.63 575.345M1342.69 530.345L1170.02 630.034M1420.63 485.345L1420.72 485.291M1342.47 819.6L1420.41 774.6M1342.47 819.6L1170.02 720.034M1342.47 819.6L1169.91 919.228M1342.47 819.6L1420.72 864.777M1420.41 774.6L1247.96 675.034M1420.41 774.6L1420.72 774.423M1420.41 774.6L1498.36 819.6M1247.96 675.034L1170.02 720.034M1247.96 675.034L1420.63 575.345M1247.96 675.034L1170.02 630.034M1170.02 720.034L1169.91 720.097M1420.72 774.423V575.398M1420.72 774.423V864.423M1420.72 774.423L1671.13 629.849M1420.72 575.398L1420.63 575.345M1671.02 719.911L1601.16 760.248M1671.02 719.911L1671.13 719.972M1671.02 719.911L1671.13 719.849M1601.16 760.248V878.952M1601.16 760.248L1498.36 819.6M1601.16 878.952L1671.13 919.351M1601.16 878.952L1499.06 820.006M1671.13 919.351V719.972M1671.13 719.972V719.849M1671.13 719.972L1921.51 864.53M1921.51 864.53V774.53M1921.51 774.53L1748.97 674.911M1921.51 774.53L1999.85 819.759M1748.97 674.911L1671.13 719.849M1748.97 385.779L1921.51 286.16M1748.97 385.779L1671.02 340.779M1921.51 286.16L1999.85 240.93M1921.51 286.16V196.16M2101.95 181.985L1999.85 240.93M2101.95 181.985V91.9849M2101.95 181.985L2171.92 141.586M1999.85 240.93V150.93M1601.16 181.738V300.441M1601.16 181.738L1671.13 141.339M1601.16 181.738L1498.36 241.089M1601.16 300.441L1671.02 340.779M1601.16 300.441L1499.06 241.496M1671.02 340.779L1671.13 340.718M1671.13 340.718V141.339M1671.13 340.718L1921.51 196.16M1499.06 331.496V241.496M1499.06 331.496L1420.72 286.266M1499.06 241.496L1498.36 241.089M1498.36 241.089L1420.72 285.912M1420.72 285.912V286.266M1420.72 286.266V485.291M997.841 729.441L919.502 774.67M997.841 729.441L1170.02 630.034M1099.94 760.495V959.627M1099.94 760.495L1169.91 720.097M1099.94 959.627L1169.91 919.228M1099.94 959.627V1049.63M1169.91 919.228V720.097M1169.91 919.228V1009.23M1099.94 1049.63L1169.91 1009.23M1169.91 1009.23L1420.72 864.423M1499.06 910.006L1499.06 820.006M1499.06 910.006L1420.72 864.777M1499.06 820.006L1498.36 819.6M1498.36 819.6L1420.72 864.423M1420.72 864.423V864.777M1921.51 196.16L1999.85 150.93M1999.85 150.93L2101.95 91.9849M2171.92 141.586V51.586M2171.92 51.586L2101.95 91.9849" stroke="#1C1C1C"/>
</g>
</g>
<defs>
<clipPath id="clip0_119_52">
<rect width="1920" height="1093" fill="white"/>
</clipPath>
</defs>
</svg>
