<svg width="70" height="90" viewBox="0 0 70 90" fill="none" xmlns="http://www.w3.org/2000/svg">
<path d="M39.1896 71.9682V51.899L32.0863 47.7418L28.4121 62.3923L24.738 43.4412L17.6347 39.284V59.3533L21.5538 61.6469V43.986L25.4728 63.9405L31.3514 67.381L35.2705 52.0137V69.6746L39.1896 71.9682Z" fill="#1C1C1C"/>
<path d="M40.0913 52.4267V64.3249C40.0913 69.4856 42.8346 74.3882 47.3171 77.0115C51.7995 79.6349 54.5428 77.9433 54.5428 72.7827V60.8845L50.6238 58.5908V70.489C50.6238 73.1267 49.4725 74.1158 47.3171 72.8543C45.1616 71.5928 44.0103 69.2562 44.0103 66.6185V54.7203L40.0913 52.4267Z" fill="#1C1C1C"/>
<path d="M70 90V89.5413C69.3876 88.1794 69.1917 86.7459 69.0937 84.739C68.9957 82.5027 67.918 80.3524 66.4728 79.0479C67.4526 79.1913 68.2364 78.9619 68.8488 78.3168C69.4611 77.6717 69.7795 76.7973 69.7795 75.6792C69.7795 72.2961 67.6241 68.5402 64.0234 66.433L55.4505 61.4156V81.4849L59.3695 83.7785V76.1809L62.5538 78.0445C64.1459 78.9762 65.0522 80.5388 65.0522 82.517C65.0522 83.8072 65.0767 84.7963 65.1501 85.4414C65.2236 86.0865 65.3706 86.7459 65.591 87.4197L70 90ZM59.3695 72.0237V67.8665L63.9009 70.5185C65.2971 71.3356 65.9829 72.5111 65.9829 73.7439C65.9829 74.9767 65.2971 75.4928 63.9009 74.6757L59.3695 72.0237Z" fill="#1C1C1C"/>
<path d="M21.5549 36.9852V16.9159L14.4516 21.0731L10.7774 40.0242L7.10331 25.3737L0 29.5309L4.36169e-07 49.6001L3.91907 47.3065L3.91907 29.6455L7.83814 45.0129L13.7167 41.5724L17.6358 21.6178L17.6358 39.2788L21.5549 36.9852Z" fill="#1C1C1C"/>
<path d="M21.2808 37.1455L25.5673 34.6369L26.89 29.7056L34.7771 25.0897L36.0998 28.4728L40.3863 25.9641L33.6504 9.83702L28.0167 13.1341L21.2808 37.1455ZM28.2127 24.7743L30.8336 15.0407L33.4545 21.7065L28.2127 24.7743Z" fill="#1C1C1C"/>
<path d="M54.6616 17.6095V17.1508C54.0493 16.5057 53.8533 15.3015 53.7553 13.4093C53.6574 11.2877 52.5796 10.3989 51.1345 10.7859C52.1142 9.78248 52.898 8.63566 53.5104 7.27382C54.1228 5.91198 54.4412 4.66482 54.4412 3.54667C54.4412 0.163569 52.2857 -1.06926 48.685 1.03801L40.1121 6.05533V26.1246L44.0312 23.831V16.2333L47.2154 14.3697C48.8075 13.4379 49.7138 13.9397 49.7138 15.9179C49.7138 17.2081 49.7383 18.1686 49.8118 18.7276C49.8853 19.2867 50.0322 19.7741 50.2527 20.1898L54.6616 17.6095ZM44.0312 12.0761V7.9189L48.5626 5.26689C49.9587 4.44979 50.6446 4.8225 50.6446 6.05533C50.6446 7.28815 49.9587 8.60699 48.5626 9.4241L44.0312 12.0761Z" fill="#1C1C1C"/>
</svg>
