<svg width="167" height="41" viewBox="0 0 167 41" fill="none" xmlns="http://www.w3.org/2000/svg">
<path d="M66.3104 30.0797V10.1401H58.0498L53.777 26.8324L49.5042 10.1401H41.2435V30.0797H45.8011V12.5329L50.3588 30.0797H57.1952L61.7528 12.5329V30.0797H66.3104Z" fill="white"/>
<path d="M65.9918 30.0797H70.9767L72.5149 25.9494H81.6871L83.2253 30.0797H88.2102L80.3767 10.1401H73.8252L65.9918 30.0797ZM74.053 21.819L77.101 13.6723L80.1489 21.819H74.053Z" fill="white"/>
<path d="M104.811 30.0797V29.624C104.099 28.627 103.871 27.3167 103.757 25.3797C103.644 23.2148 102.39 21.7051 100.71 21.2493C101.849 20.8221 102.76 20.1384 103.473 19.1414C104.185 18.1445 104.555 17.0905 104.555 15.9796C104.555 12.6183 102.048 10.1401 97.861 10.1401H87.8913V30.0797H92.4489V22.5312H96.1519C98.0035 22.5312 99.0574 23.5566 99.0574 25.5221C99.0574 26.8039 99.0859 27.7724 99.1714 28.3706C99.2568 28.9688 99.4277 29.5385 99.6841 30.0797H104.811ZM92.4489 18.4008V14.2705H97.7186C99.3423 14.2705 100.14 15.0396 100.14 16.2644C100.14 17.4893 99.3423 18.4008 97.7186 18.4008H92.4489Z" fill="white"/>
<path d="M130.371 30.0797V10.1401H122.11L117.837 26.8324L113.565 10.1401H105.304V30.0797H109.862V12.5329L114.419 30.0797H121.256L125.813 12.5329V30.0797H130.371Z" fill="white"/>
<path d="M131.419 10.1401V21.9615C131.419 27.0888 134.61 30.3646 139.823 30.3646C145.035 30.3646 148.226 27.0888 148.226 21.9615V10.1401H143.668V21.9615C143.668 24.5821 142.329 26.2342 139.823 26.2342C137.316 26.2342 135.977 24.5821 135.977 21.9615V10.1401H131.419Z" fill="white"/>
<path d="M166.201 30.0797V29.624C165.489 28.627 165.261 27.3167 165.147 25.3797C165.033 23.2148 163.78 21.7051 162.099 21.2493C163.239 20.8221 164.15 20.1384 164.862 19.1414C165.575 18.1445 165.945 17.0905 165.945 15.9796C165.945 12.6183 163.438 10.1401 159.251 10.1401H149.281V30.0797H153.839V22.5312H157.542C159.393 22.5312 160.447 23.5566 160.447 25.5221C160.447 26.8039 160.476 27.7724 160.561 28.3706C160.647 28.9688 160.818 29.5385 161.074 30.0797H166.201ZM153.839 18.4008V14.2705H159.108C160.732 14.2705 161.53 15.0396 161.53 16.2644C161.53 17.4893 160.732 18.4008 159.108 18.4008H153.839Z" fill="white"/>
<path d="M0 13.6508L23.6683 0V8.61609L0 22.2669V13.6508Z" fill="white"/>
<path d="M7.4742 26.523L31.1425 40.1738V31.5577L7.4742 17.9069V26.523Z" fill="white"/>
</svg>
