<svg width="30" height="30" viewBox="0 0 30 30" fill="none" xmlns="http://www.w3.org/2000/svg">
<path d="M20.625 8.43747C20.5371 8.52462 20.4674 8.62831 20.4198 8.74255C20.3722 8.85679 20.3477 8.97933 20.3477 9.10309C20.3477 9.22685 20.3722 9.34939 20.4198 9.46363C20.4674 9.57788 20.5371 9.68156 20.625 9.76872L24.9375 14.0812H2.86874C2.6201 14.0812 2.38165 14.18 2.20583 14.3558C2.03002 14.5316 1.93124 14.7701 1.93124 15.0187C1.93124 15.2674 2.03002 15.5058 2.20583 15.6816C2.38165 15.8574 2.6201 15.9562 2.86874 15.9562H24.9187L20.625 20.2406C20.4504 20.4162 20.3524 20.6539 20.3524 20.9015C20.3524 21.1492 20.4504 21.3868 20.625 21.5625C20.8006 21.7371 21.0383 21.8351 21.2859 21.8351C21.5336 21.8351 21.7712 21.7371 21.9469 21.5625L27.9094 15.6C27.9896 15.523 28.0535 15.4305 28.0971 15.3282C28.1407 15.2259 28.1632 15.1159 28.1632 15.0047C28.1632 14.8934 28.1407 14.7834 28.0971 14.6811C28.0535 14.5788 27.9896 14.4863 27.9094 14.4093L21.9562 8.43747C21.8691 8.3496 21.7654 8.27985 21.6512 8.23226C21.5369 8.18466 21.4144 8.16016 21.2906 8.16016C21.1669 8.16016 21.0443 8.18466 20.9301 8.23226C20.8158 8.27985 20.7121 8.3496 20.625 8.43747Z" fill="black"/>
</svg>
