<svg width="30" height="30" viewBox="0 0 30 30" fill="none" xmlns="http://www.w3.org/2000/svg">
<path d="M9.37501 21.5625C9.46288 21.4754 9.53262 21.3717 9.58022 21.2574C9.62781 21.1432 9.65232 21.0207 9.65232 20.8969C9.65232 20.7731 9.62781 20.6506 9.58022 20.5364C9.53262 20.4221 9.46288 20.3184 9.37501 20.2313L5.06251 15.9188L27.1313 15.9188C27.3799 15.9188 27.6184 15.82 27.7942 15.6442C27.97 15.4684 28.0688 15.2299 28.0688 14.9813C28.0688 14.7326 27.97 14.4942 27.7942 14.3184C27.6184 14.1426 27.3799 14.0438 27.1313 14.0438L5.08126 14.0438L9.37501 9.75941C9.54962 9.58376 9.64762 9.34614 9.64762 9.09847C9.64762 8.8508 9.54962 8.61318 9.37501 8.43753C9.19935 8.26292 8.96174 8.16492 8.71407 8.16492C8.46639 8.16492 8.22878 8.26292 8.05313 8.43753L2.09063 14.4C2.01038 14.477 1.94653 14.5695 1.9029 14.6718C1.85928 14.7741 1.8368 14.8841 1.8368 14.9953C1.8368 15.1066 1.85928 15.2166 1.9029 15.3189C1.94653 15.4212 2.01038 15.5137 2.09063 15.5907L8.04376 21.5625C8.13091 21.6504 8.2346 21.7201 8.34884 21.7677C8.46309 21.8153 8.58562 21.8398 8.70938 21.8398C8.83314 21.8398 8.95568 21.8153 9.06992 21.7677C9.18416 21.7201 9.28785 21.6504 9.37501 21.5625Z" fill="black"/>
</svg>
