<svg width="20" height="20" viewBox="0 0 20 20" fill="none" xmlns="http://www.w3.org/2000/svg">
<path d="M17.0245 14.2279C16.4613 13.6643 15.8032 13.2043 15.0805 12.8689C16.0997 12.0432 16.75 10.7832 16.75 9.37028C16.75 6.87736 14.671 4.83217 12.178 4.87041C9.72325 4.90866 7.74551 6.90886 7.74551 9.37028C7.74551 10.7832 8.39801 12.0432 9.415 12.8689C8.6921 13.204 8.03401 13.6641 7.47102 14.2279C6.24252 15.4586 5.54503 17.0831 5.50003 18.8155C5.49943 18.8395 5.50364 18.8634 5.51242 18.8858C5.52119 18.9081 5.53436 18.9285 5.55113 18.9457C5.56791 18.9629 5.58795 18.9766 5.61009 18.9859C5.63223 18.9952 5.65601 19 5.68003 19H6.94002C7.03677 19 7.11777 18.9235 7.12002 18.8268C7.16277 17.5218 7.69151 16.3001 8.62076 15.3731C9.09627 14.8951 9.66187 14.5161 10.2848 14.2581C10.9078 14.0001 11.5757 13.8683 12.25 13.8702C13.6202 13.8702 14.9095 14.4034 15.8792 15.3731C16.8062 16.3001 17.335 17.5218 17.38 18.8268C17.3822 18.9235 17.4632 19 17.56 19H18.8199C18.844 19 18.8677 18.9952 18.8899 18.9859C18.912 18.9766 18.9321 18.9629 18.9488 18.9457C18.9656 18.9285 18.9788 18.9081 18.9876 18.8858C18.9963 18.8634 19.0005 18.8395 18.9999 18.8155C18.9549 17.0831 18.2574 15.4586 17.0245 14.2279ZM12.25 12.2502C11.4805 12.2502 10.756 11.951 10.2137 11.4065C9.94162 11.1365 9.72666 10.8145 9.5817 10.4596C9.43674 10.1047 9.36474 9.72432 9.37 9.34103C9.37675 8.60306 9.6715 7.88983 10.1867 7.36109C10.7267 6.80761 11.449 6.49937 12.2207 6.49037C12.9835 6.48362 13.7237 6.78061 14.2682 7.31384C14.8262 7.86058 15.1322 8.59181 15.1322 9.37028C15.1322 10.1398 14.833 10.862 14.2885 11.4065C14.0213 11.6749 13.7036 11.8877 13.3537 12.0325C13.0038 12.1773 12.6287 12.2513 12.25 12.2502ZM6.61377 9.96427C6.59352 9.76852 6.58227 9.57053 6.58227 9.37028C6.58227 9.01254 6.61602 8.6638 6.67902 8.32406C6.69477 8.24307 6.65202 8.15982 6.57777 8.12607C6.27177 7.98882 5.99053 7.79983 5.74753 7.56134C5.46119 7.28371 5.23588 6.94945 5.08595 6.57988C4.93603 6.21031 4.86479 5.81354 4.87678 5.4149C4.89703 4.69267 5.18728 4.00644 5.69353 3.48896C6.24927 2.91972 6.99627 2.60923 7.79051 2.61823C8.50826 2.62498 9.20125 2.90172 9.7255 3.39221C9.90325 3.5587 10.0562 3.7432 10.1845 3.94119C10.2295 4.01094 10.3172 4.04019 10.3937 4.01319C10.7897 3.87594 11.2082 3.7792 11.638 3.7342C11.764 3.7207 11.836 3.5857 11.7797 3.47321C11.0485 2.0265 9.5545 1.02753 7.82651 1.00053C5.33128 0.962279 3.25229 3.00747 3.25229 5.49815C3.25229 6.9111 3.90254 8.17107 4.92178 8.99679C4.20629 9.32753 3.54704 9.78427 2.97554 10.3558C1.74255 11.5865 1.04506 13.2109 1.00006 14.9456C0.999456 14.9696 1.00367 14.9935 1.01244 15.0159C1.02122 15.0382 1.03438 15.0586 1.05116 15.0758C1.06793 15.093 1.08798 15.1067 1.11012 15.116C1.13225 15.1253 1.15603 15.1301 1.18006 15.1301H2.4423C2.53905 15.1301 2.62005 15.0536 2.6223 14.9569C2.66505 13.6519 3.19379 12.4302 4.12304 11.5032C4.78453 10.8417 5.59453 10.3828 6.47877 10.16C6.56652 10.1375 6.62502 10.0543 6.61377 9.96427V9.96427Z" fill="#8D8D8D"/>
</svg>
