<svg width="20" height="20" viewBox="0 0 20 20" fill="none" xmlns="http://www.w3.org/2000/svg">
<path d="M9.1 1.675C9.1 1.49598 9.02888 1.32429 8.9023 1.1977C8.77571 1.07112 8.60402 1 8.425 1H3.925C3.14924 1 2.40526 1.30817 1.85671 1.85671C1.30817 2.40526 1 3.14924 1 3.925V8.425C1 8.60402 1.07112 8.77571 1.1977 8.9023C1.32429 9.02888 1.49598 9.1 1.675 9.1C1.85402 9.1 2.02571 9.02888 2.1523 8.9023C2.27888 8.77571 2.35 8.60402 2.35 8.425V3.925C2.35 3.0556 3.0556 2.35 3.925 2.35H8.425C8.60402 2.35 8.77571 2.27888 8.9023 2.1523C9.02888 2.02571 9.1 1.85402 9.1 1.675ZM11.575 1C11.396 1 11.2243 1.07112 11.0977 1.1977C10.9711 1.32429 10.9 1.49598 10.9 1.675C10.9 1.85402 10.9711 2.02571 11.0977 2.1523C11.2243 2.27888 11.396 2.35 11.575 2.35H16.075C16.9444 2.35 17.65 3.0556 17.65 3.925V8.425C17.65 8.60402 17.7211 8.77571 17.8477 8.9023C17.9743 9.02888 18.146 9.1 18.325 9.1C18.504 9.1 18.6757 9.02888 18.8023 8.9023C18.9289 8.77571 19 8.60402 19 8.425V3.925C19 3.54088 18.9243 3.16053 18.7773 2.80565C18.6304 2.45077 18.4149 2.12832 18.1433 1.85671C17.8717 1.5851 17.5492 1.36965 17.1943 1.22265C16.8395 1.07566 16.4591 1 16.075 1H11.575ZM11.575 19C11.396 19 11.2243 18.9289 11.0977 18.8023C10.9711 18.6757 10.9 18.504 10.9 18.325C10.9 18.146 10.9711 17.9743 11.0977 17.8477C11.2243 17.7211 11.396 17.65 11.575 17.65H16.075C16.4927 17.65 16.8933 17.4841 17.1887 17.1887C17.4841 16.8933 17.65 16.4927 17.65 16.075V11.575C17.65 11.396 17.7211 11.2243 17.8477 11.0977C17.9743 10.9711 18.146 10.9 18.325 10.9C18.504 10.9 18.6757 10.9711 18.8023 11.0977C18.9289 11.2243 19 11.396 19 11.575V16.075C19 16.4591 18.9243 16.8395 18.7773 17.1943C18.6304 17.5492 18.4149 17.8717 18.1433 18.1433C17.8717 18.4149 17.5492 18.6304 17.1943 18.7773C16.8395 18.9243 16.4591 19 16.075 19H11.575ZM8.425 19C8.60402 19 8.77571 18.9289 8.9023 18.8023C9.02888 18.6757 9.1 18.504 9.1 18.325C9.1 18.146 9.02888 17.9743 8.9023 17.8477C8.77571 17.7211 8.60402 17.65 8.425 17.65H3.925C3.50728 17.65 3.10668 17.4841 2.81131 17.1887C2.51594 16.8933 2.35 16.4927 2.35 16.075V11.575C2.35 11.396 2.27888 11.2243 2.1523 11.0977C2.02571 10.9711 1.85402 10.9 1.675 10.9C1.49598 10.9 1.32429 10.9711 1.1977 11.0977C1.07112 11.2243 1 11.396 1 11.575V16.075C1 16.4591 1.07566 16.8395 1.22265 17.1943C1.36965 17.5492 1.5851 17.8717 1.85671 18.1433C2.12832 18.4149 2.45077 18.6304 2.80565 18.7773C3.16053 18.9243 3.54088 19 3.925 19H8.425Z" fill="#8D8D8D"/>
</svg>
