<svg width="36" height="36" viewBox="0 0 36 36" fill="none" xmlns="http://www.w3.org/2000/svg">
<circle cx="18" cy="18" r="18" fill="white"/>
<path d="M18 16.9999C20.9455 16.9999 23.3333 14.6121 23.3333 11.6666C23.3333 8.72107 20.9455 6.33325 18 6.33325C15.0545 6.33325 12.6667 8.72107 12.6667 11.6666C12.6667 14.6121 15.0545 16.9999 18 16.9999Z" fill="#1C1C1C"/>
<path d="M28.6667 26.3333V27.6666C28.6667 28.0202 28.5262 28.3593 28.2761 28.6094C28.0261 28.8594 27.687 28.9999 27.3333 28.9999H8.66667C8.31304 28.9999 7.97391 28.8594 7.72386 28.6094C7.47381 28.3593 7.33333 28.0202 7.33333 27.6666V26.3333C7.33333 24.2115 8.17619 22.1767 9.67648 20.6764C11.1768 19.1761 13.2116 18.3333 15.3333 18.3333H20.6667C22.7884 18.3333 24.8232 19.1761 26.3235 20.6764C27.8238 22.1767 28.6667 24.2115 28.6667 26.3333Z" fill="#1C1C1C"/>
</svg>
