<svg width="28" height="28" viewBox="0 0 28 28" fill="none" xmlns="http://www.w3.org/2000/svg">
<g clip-path="url(#clip0_73_4)">
<path d="M26.25 21.875L25.0128 20.6378L22.75 22.9005V15.75H21V22.9005L18.7372 20.6378L17.5 21.875L21.875 26.25L26.25 21.875Z" fill="white"/>
<path d="M15.75 24.5001H7V3.50006H14V8.75006C14.0013 9.21377 14.1861 9.65812 14.514 9.98601C14.8419 10.3139 15.2863 10.4987 15.75 10.5001H21V13.1251H22.75V8.75006C22.7531 8.63505 22.7313 8.52074 22.686 8.415C22.6407 8.30925 22.5729 8.2146 22.4875 8.13756L16.3625 2.01256C16.2855 1.92709 16.1908 1.85936 16.0851 1.81404C15.9793 1.76872 15.865 1.74689 15.75 1.75006H7C6.53628 1.7514 6.09194 1.9362 5.76404 2.2641C5.43614 2.592 5.25134 3.03634 5.25 3.50006V24.5001C5.25134 24.9638 5.43614 25.4081 5.76404 25.736C6.09194 26.0639 6.53628 26.2487 7 26.2501H15.75V24.5001ZM15.75 3.85006L20.65 8.75006H15.75V3.85006Z" fill="white"/>
</g>
<defs>
<clipPath id="clip0_73_4">
<rect width="28" height="28" fill="white"/>
</clipPath>
</defs>
</svg>
