<svg width="16" height="11" viewBox="0 0 16 11" fill="none" xmlns="http://www.w3.org/2000/svg">
<path d="M14.4499 1.83414H9.85222V0.520508H14.4499V1.83414ZM15.5836 8.40228C15.2933 9.25417 14.2509 10.3727 12.2332 10.3727C10.2141 10.3727 8.57865 9.23709 8.57865 6.6453C8.57865 4.07716 10.1057 2.75696 12.1688 2.75696C14.1931 2.75696 15.4292 3.9274 15.6992 5.66402C15.7504 5.99637 15.7708 6.44432 15.7616 7.0696H10.4893C10.5747 9.17864 12.777 9.24497 13.5028 8.40228H15.5836ZM10.5353 5.77502H13.7964C13.7274 4.75893 13.0502 4.31755 12.1695 4.31755C11.2066 4.31755 10.6739 4.82199 10.5353 5.77502ZM4.24696 10.3648H0V0.534301H4.56683C8.16355 0.587503 8.23186 4.11 6.35337 5.07026C8.6266 5.89785 8.70279 10.3648 4.24696 10.3648ZM1.97044 4.46139H4.32447C5.97176 4.46139 6.23317 2.49095 4.11954 2.49095H1.97044V4.46139ZM4.1977 6.43184H1.97044V8.41279H4.16486C6.17143 8.41279 6.0486 6.43184 4.1977 6.43184Z" fill="white"/>
</svg>
