<svg width="10" height="13" viewBox="0 0 10 13" fill="none" xmlns="http://www.w3.org/2000/svg">
<path d="M5.29639 0.764648C2.01132 0.764648 0.294128 2.772 0.294128 4.99443C0.294128 6.0698 0.891413 7.14516 1.862 7.71869C2.16064 7.86207 2.08598 7.71869 2.30997 6.8584C2.30997 6.78671 2.30997 6.71502 2.2353 6.64332C0.891413 5.06612 2.01132 1.9834 5.14707 1.9834C9.70137 1.9834 8.80544 8.00546 5.96834 8.00546C5.37105 8.07715 4.84843 7.647 4.84843 7.07347V6.78671C5.14707 5.9981 5.37105 5.28119 5.44571 4.49259C5.44571 2.98707 3.13123 3.20215 3.13123 5.2095C3.13123 5.56796 3.20589 5.92641 3.35521 6.21318C3.35521 6.21318 2.60861 9.15252 2.45929 9.65435C2.30997 10.5146 2.38463 11.3749 2.53395 12.1635C2.45929 12.2352 2.53395 12.2352 2.53395 12.2352H2.60861C3.13123 11.5183 3.5792 10.8014 3.87784 10.0128C3.9525 9.65435 4.3258 8.36391 4.3258 8.36391C4.69911 8.86575 5.37105 9.15252 6.043 9.15252C8.35748 9.15252 10 7.21685 10 4.85105C10 2.48524 7.90951 0.764648 5.29639 0.764648Z" fill="#1C1C1C"/>
</svg>
