<svg width="58" height="58" viewBox="0 0 58 58" fill="none" xmlns="http://www.w3.org/2000/svg">
<path d="M32.625 52.5625C32.2554 52.5616 31.8949 52.4478 31.5919 52.2363L13.4669 39.5488C13.2268 39.3822 13.0305 39.1601 12.8948 38.9013C12.7591 38.6425 12.688 38.3547 12.6875 38.0625V19.9375C12.688 19.6453 12.7591 19.3575 12.8948 19.0988C13.0305 18.84 13.2268 18.6178 13.4669 18.4513L31.5919 5.76377C31.8561 5.58498 32.1628 5.47909 32.4811 5.45682C32.7993 5.43454 33.1178 5.49666 33.4044 5.6369C33.7101 5.78245 33.9689 6.01072 34.1515 6.29582C34.3341 6.58093 34.4331 6.91148 34.4375 7.25002V50.75C34.4382 51.0828 34.3472 51.4094 34.1746 51.694C34.0019 51.9785 33.7543 52.21 33.4587 52.3631C33.2008 52.4953 32.9149 52.5637 32.625 52.5625ZM16.3125 37.12L30.8125 47.27V10.73L16.3125 20.88V37.12Z" fill="white"/>
<path d="M14.5 39.875H7.25C5.80789 39.875 4.42484 39.3021 3.40511 38.2824C2.38538 37.2627 1.8125 35.8796 1.8125 34.4375V23.5625C1.8125 22.1204 2.38538 20.7373 3.40511 19.7176C4.42484 18.6979 5.80789 18.125 7.25 18.125H14.5C14.9807 18.125 15.4417 18.316 15.7816 18.6559C16.1215 18.9958 16.3125 19.4568 16.3125 19.9375V38.0625C16.3125 38.5432 16.1215 39.0042 15.7816 39.3441C15.4417 39.684 14.9807 39.875 14.5 39.875ZM7.25 21.75C6.7693 21.75 6.30828 21.941 5.96837 22.2809C5.62846 22.6208 5.4375 23.0818 5.4375 23.5625V34.4375C5.4375 34.9182 5.62846 35.3792 5.96837 35.7191C6.30828 36.059 6.7693 36.25 7.25 36.25H12.6875V21.75H7.25Z" fill="white"/>
<path d="M40.2801 20.0261L37.7168 22.5894L53.0964 37.9689L55.6596 35.4057L40.2801 20.0261Z" fill="white"/>
<path d="M53.0964 20.0262L37.7168 35.4058L40.2801 37.969L55.6596 22.5895L53.0964 20.0262Z" fill="white"/>
</svg>
