<svg width="58" height="58" viewBox="0 0 58 58" fill="none" xmlns="http://www.w3.org/2000/svg">
<path d="M32.625 52.5625C32.2554 52.5616 31.8949 52.4478 31.5919 52.2363L13.4669 39.5488C13.2268 39.3822 13.0305 39.1601 12.8948 38.9013C12.7591 38.6425 12.688 38.3547 12.6875 38.0625V19.9375C12.688 19.6453 12.7591 19.3575 12.8948 19.0988C13.0305 18.84 13.2268 18.6178 13.4669 18.4513L31.5919 5.76377C31.8561 5.58498 32.1628 5.47909 32.4811 5.45682C32.7993 5.43454 33.1178 5.49666 33.4044 5.6369C33.7101 5.78245 33.9689 6.01072 34.1515 6.29582C34.3341 6.58093 34.4331 6.91148 34.4375 7.25002V50.75C34.4382 51.0828 34.3472 51.4094 34.1746 51.694C34.0019 51.9785 33.7543 52.21 33.4587 52.3631C33.2008 52.4953 32.9149 52.5637 32.625 52.5625ZM16.3125 37.12L30.8125 47.27V10.73L16.3125 20.88V37.12Z" fill="white"/>
<path d="M14.5 39.875H7.25C5.80789 39.875 4.42484 39.3021 3.40511 38.2824C2.38538 37.2627 1.8125 35.8796 1.8125 34.4375V23.5625C1.8125 22.1204 2.38538 20.7373 3.40511 19.7176C4.42484 18.6979 5.80789 18.125 7.25 18.125H14.5C14.9807 18.125 15.4417 18.316 15.7816 18.6559C16.1215 18.9958 16.3125 19.4568 16.3125 19.9375V38.0625C16.3125 38.5432 16.1215 39.0042 15.7816 39.3441C15.4417 39.684 14.9807 39.875 14.5 39.875ZM7.25 21.75C6.7693 21.75 6.30828 21.941 5.96837 22.2809C5.62846 22.6208 5.4375 23.0818 5.4375 23.5625V34.4375C5.4375 34.9182 5.62846 35.3792 5.96837 35.7191C6.30828 36.059 6.7693 36.25 7.25 36.25H12.6875V21.75H7.25Z" fill="white"/>
<path d="M32.625 38.0625V34.4375C33.6997 34.4365 34.7501 34.1171 35.6434 33.5196C36.5367 32.922 37.2329 32.0732 37.6441 31.0802C38.0552 30.0872 38.1629 28.9946 37.9535 27.9405C37.7441 26.8864 37.227 25.9179 36.4675 25.1575L39.0413 22.5837C40.3119 23.8512 41.1777 25.4674 41.5287 27.2275C41.8797 28.9876 41.7002 30.8123 41.013 32.4703C40.3257 34.1282 39.1616 35.5448 37.6683 36.5404C36.175 37.5359 34.4197 38.0657 32.625 38.0625Z" fill="white"/>
<path d="M47.9949 46.1825C47.7563 46.1839 47.5199 46.1381 47.2991 46.0479C47.0782 45.9577 46.8774 45.8248 46.708 45.6568C46.5381 45.4884 46.4033 45.2879 46.3113 45.067C46.2193 44.8461 46.1719 44.6092 46.1719 44.37C46.1719 44.1307 46.2193 43.8938 46.3113 43.6729C46.4033 43.4521 46.5381 43.2516 46.708 43.0831C50.438 39.3453 52.5328 34.2805 52.5328 29C52.5328 23.7195 50.438 18.6546 46.708 14.9168C46.539 14.7479 46.405 14.5472 46.3135 14.3264C46.222 14.1056 46.175 13.869 46.175 13.63C46.175 13.391 46.222 13.1543 46.3135 12.9335C46.405 12.7127 46.539 12.5121 46.708 12.3431C46.877 12.1741 47.0776 12.0401 47.2984 11.9486C47.5192 11.8571 47.7559 11.8101 47.9949 11.8101C48.2339 11.8101 48.4705 11.8571 48.6913 11.9486C48.9121 12.0401 49.1128 12.1741 49.2818 12.3431C53.6979 16.7616 56.1787 22.7529 56.1787 29C56.1787 35.247 53.6979 41.2384 49.2818 45.6568C49.1124 45.8248 48.9115 45.9577 48.6907 46.0479C48.4699 46.1381 48.2334 46.1839 47.9949 46.1825Z" fill="white"/>
<path d="M42.8659 41.053C42.3904 41.051 41.9347 40.8623 41.5971 40.5274C41.2984 40.1809 41.1416 39.7343 41.1585 39.2771C41.1753 38.8199 41.3643 38.386 41.6878 38.0624C42.866 36.8842 43.8007 35.4855 44.4384 33.9461C45.0761 32.4067 45.4043 30.7568 45.4043 29.0905C45.4043 27.4243 45.0761 25.7743 44.4384 24.2349C43.8007 22.6955 42.866 21.2968 41.6878 20.1187C41.3908 19.7719 41.2357 19.3259 41.2533 18.8697C41.2709 18.4136 41.46 17.9809 41.7828 17.6581C42.1056 17.3353 42.5383 17.1462 42.9945 17.1285C43.4506 17.1109 43.8967 17.2661 44.2434 17.563C47.2982 20.6216 49.014 24.7677 49.014 29.0905C49.014 33.4134 47.2982 37.5594 44.2434 40.618C44.0559 40.7811 43.8368 40.9039 43.5998 40.9787C43.3629 41.0535 43.113 41.0788 42.8659 41.053Z" fill="white"/>
</svg>
